<?xml version="1.0" encoding="UTF-8"?>
<!DOCTYPE svg PUBLIC "-//W3C//DTD SVG 1.1//EN" "http://www.w3.org/Graphics/SVG/1.1/DTD/svg11.dtd">
<svg xmlns="http://www.w3.org/2000/svg" version="1.1" width="990px" height="1004px" style="shape-rendering:geometricPrecision; text-rendering:geometricPrecision; image-rendering:optimizeQuality; fill-rule:evenodd; clip-rule:evenodd" xmlns:xlink="http://www.w3.org/1999/xlink">
<g><path style="opacity:0.924" fill="#fefffe" d="M 663.5,36.5 C 748.437,34.0567 816.603,66.39 868,133.5C 893.639,170.746 907.973,212.079 911,257.5C 927.343,301.079 931.009,345.745 922,391.5C 912.597,421.283 903.43,451.116 894.5,481C 898.588,490.008 903.088,498.841 908,507.5C 916,521.5 924,535.5 932,549.5C 933,550.5 934,551.5 935,552.5C 960.472,602.64 967.139,655.306 955,710.5C 947.223,741.049 933.889,768.716 915,793.5C 902.167,806.333 889.333,819.167 876.5,832C 870.189,835.492 864.189,839.492 858.5,844C 851.385,848.117 844.052,851.784 836.5,855C 785.857,927.489 716.191,963.156 627.5,962C 574.183,972.14 523.516,964.807 475.5,940C 465.747,933.241 455.747,926.907 445.5,921C 430.749,906.585 416.416,891.918 402.5,877C 369.996,875.977 337.329,875.31 304.5,875C 233.037,869.697 176.87,837.864 136,779.5C 107.766,735.691 95.7657,687.691 100,635.5C 59.8766,596.587 36.21,549.253 29,493.5C 21.3001,391.469 60.8001,313.969 147.5,261C 158.208,255.646 168.875,250.313 179.5,245C 181.167,244.667 182.833,244.333 184.5,244C 213.295,229.27 242.629,215.604 272.5,203C 278.448,199.019 284.781,196.019 291.5,194C 296.167,191.333 300.833,188.667 305.5,186C 312.167,183.333 318.833,180.667 325.5,178C 332.306,174.075 339.306,170.742 346.5,168C 351.809,165.233 355.642,161.067 358,155.5C 382.768,124.725 413.268,101.558 449.5,86C 481.629,73.6716 514.796,69.1716 549,72.5C 574.389,58.4782 601.222,47.9782 629.5,41C 640.947,39.2312 652.281,37.7312 663.5,36.5 Z"/></g>
<g><path style="opacity:1" fill="#59aed5" d="M 902.5,233.5 C 858.717,159.045 793.217,122.378 706,123.5C 694.494,124.063 682.994,124.73 671.5,125.5C 668.41,125.522 665.743,126.188 663.5,127.5C 636.901,106.37 606.901,91.8697 573.5,84C 565.249,82.1061 556.916,81.4394 548.5,82C 544.828,84.838 540.828,87.1713 536.5,89C 477.62,116.607 418.62,143.94 359.5,171C 358,172.5 356.5,174 355,175.5C 350.322,184.2 345.156,192.533 339.5,200.5C 335.019,199.352 330.352,199.185 325.5,200C 324.833,200.667 324.167,201.333 323.5,202C 302.398,207.321 281.065,211.821 259.5,215.5C 263.353,213.318 267.186,210.984 271,208.5C 271.414,208.957 271.914,209.291 272.5,209.5C 278.779,206.136 284.612,202.802 290,199.5C 290.414,199.957 290.914,200.291 291.5,200.5C 297.415,197.293 303.248,193.96 309,190.5C 309.414,190.957 309.914,191.291 310.5,191.5C 316.426,187.694 322.426,184.861 328.5,183C 333.448,180.279 338.281,177.446 343,174.5C 343.414,174.957 343.914,175.291 344.5,175.5C 347.96,173.867 351.294,172.034 354.5,170C 403.538,102.814 469.538,71.8138 552.5,77C 581.557,60.6433 612.557,49.6433 645.5,44C 744.911,34.7923 821.411,71.959 875,155.5C 888.837,179.844 898.004,205.844 902.5,233.5 Z"/></g>
<g><path style="opacity:1" fill="#fdfefe" d="M 663.5,127.5 C 663.5,128.167 663.833,128.5 664.5,128.5C 664.5,128.833 664.5,129.167 664.5,129.5C 664.179,131.048 663.179,131.715 661.5,131.5C 661.5,132.5 661.5,133.5 661.5,134.5C 659.901,134.232 658.568,134.566 657.5,135.5C 551.71,159.194 445.71,182.527 339.5,205.5C 339.5,203.833 339.5,202.167 339.5,200.5C 345.156,192.533 350.322,184.2 355,175.5C 356.5,174 358,172.5 359.5,171C 418.62,143.94 477.62,116.607 536.5,89C 540.828,87.1713 544.828,84.838 548.5,82C 556.916,81.4394 565.249,82.1061 573.5,84C 606.901,91.8697 636.901,106.37 663.5,127.5 Z"/></g>
<g><path style="opacity:1" fill="#1777a4" d="M 902.5,233.5 C 902.5,234.167 902.5,234.833 902.5,235.5C 858.564,161.205 793.064,124.205 706,124.5C 694.83,125.104 683.663,125.771 672.5,126.5C 669.41,126.522 666.743,127.188 664.5,128.5C 663.833,128.5 663.5,128.167 663.5,127.5C 665.743,126.188 668.41,125.522 671.5,125.5C 682.994,124.73 694.494,124.063 706,123.5C 793.217,122.378 858.717,159.045 902.5,233.5 Z"/></g>
<g><path style="opacity:1" fill="#066997" d="M 902.5,235.5 C 903.604,241.221 904.604,247.054 905.5,253C 905.043,253.414 904.709,253.914 904.5,254.5C 910.426,271.873 915.26,289.54 919,307.5C 922.708,334.605 922.041,361.605 917,388.5C 907.842,417.47 898.842,446.47 890,475.5C 889.608,478.188 889.108,480.855 888.5,483.5C 890.964,486.765 892.631,490.431 893.5,494.5C 893.822,496.722 893.155,498.556 891.5,500C 888.456,500.363 885.456,500.863 882.5,501.5C 880.88,505.25 879.047,509.584 877,514.5C 876.005,518.145 875.172,521.812 874.5,525.5C 873.596,526.209 873.263,527.209 873.5,528.5C 870.659,537.029 867.992,545.695 865.5,554.5C 862.444,562.67 859.777,571.003 857.5,579.5C 853.686,591.078 850.02,602.744 846.5,614.5C 824.403,684.111 802.236,753.777 780,823.5C 775.876,835.063 770.709,846.063 764.5,856.5C 762.485,858.676 760.818,861.176 759.5,864C 760.563,865.188 761.897,865.688 763.5,865.5C 763.817,868.572 763.484,871.572 762.5,874.5C 734.329,913.755 697.329,941.089 651.5,956.5C 644.91,956.811 638.41,956.478 632,955.5C 622.327,957.183 612.494,958.85 602.5,960.5C 599.854,959.638 597.187,959.805 594.5,961C 563.186,962.436 533.186,957.769 504.5,947C 495.868,943.008 487.201,939.008 478.5,935C 468.747,928.241 458.747,921.907 448.5,916C 433.545,901.549 419.211,886.715 405.5,871.5C 403.913,868.732 402.08,866.065 400,863.5C 375.3,837.801 350.967,811.801 327,785.5C 323.219,780.879 318.719,777.212 313.5,774.5C 311.947,773.131 311.28,771.798 311.5,770.5C 310.167,768.5 308.5,766.833 306.5,765.5C 305.306,764.728 304.306,763.728 303.5,762.5C 300.899,758.229 297.566,754.563 293.5,751.5C 293.167,750.5 292.5,749.833 291.5,749.5C 288.23,744.56 284.23,740.227 279.5,736.5C 279.5,735.833 279.167,735.5 278.5,735.5C 275.23,730.56 271.23,726.227 266.5,722.5C 266.5,721.833 266.167,721.5 265.5,721.5C 262.23,716.56 258.23,712.227 253.5,708.5C 253.167,707.5 252.5,706.833 251.5,706.5C 248.23,701.56 244.23,697.227 239.5,693.5C 239.5,692.833 239.167,692.5 238.5,692.5C 235.23,687.56 231.23,683.227 226.5,679.5C 226.5,678.833 226.167,678.5 225.5,678.5C 222.23,673.56 218.23,669.227 213.5,665.5C 213.167,664.5 212.5,663.833 211.5,663.5C 208.23,658.56 204.23,654.227 199.5,650.5C 199.5,649.833 199.167,649.5 198.5,649.5C 195.23,644.56 191.23,640.227 186.5,636.5C 186.5,635.833 186.167,635.5 185.5,635.5C 182.23,630.56 178.23,626.227 173.5,622.5C 173.167,621.5 172.5,620.833 171.5,620.5C 168.23,615.56 164.23,611.227 159.5,607.5C 159.5,606.833 159.167,606.5 158.5,606.5C 155.23,601.56 151.23,597.227 146.5,593.5C 146.5,592.833 146.167,592.5 145.5,592.5C 142.23,587.56 138.23,583.227 133.5,579.5C 133.167,578.5 132.5,577.833 131.5,577.5C 129.775,573.952 126.941,571.618 123,570.5C 89.0993,525.428 74.0993,474.428 78,417.5C 82.2086,358.418 106.209,309.085 150,269.5C 150.483,268.552 150.649,267.552 150.5,266.5C 159.355,261.241 168.689,256.741 178.5,253C 180.14,250.661 182.14,249.828 184.5,250.5C 209.654,237.717 234.654,226.05 259.5,215.5C 281.065,211.821 302.398,207.321 323.5,202C 324.167,201.333 324.833,200.667 325.5,200C 330.352,199.185 335.019,199.352 339.5,200.5C 339.5,202.167 339.5,203.833 339.5,205.5C 445.71,182.527 551.71,159.194 657.5,135.5C 659.167,135.5 660.833,135.5 662.5,135.5C 662.5,134.5 662.5,133.5 662.5,132.5C 667.777,133.083 668.443,132.083 664.5,129.5C 664.5,129.167 664.5,128.833 664.5,128.5C 666.743,127.188 669.41,126.522 672.5,126.5C 683.663,125.771 694.83,125.104 706,124.5C 793.064,124.205 858.564,161.205 902.5,235.5 Z"/></g>
<g><path style="opacity:1" fill="#b5d2e0" d="M 664.5,129.5 C 668.443,132.083 667.777,133.083 662.5,132.5C 662.5,133.5 662.5,134.5 662.5,135.5C 660.833,135.5 659.167,135.5 657.5,135.5C 658.568,134.566 659.901,134.232 661.5,134.5C 661.5,133.5 661.5,132.5 661.5,131.5C 663.179,131.715 664.179,131.048 664.5,129.5 Z"/></g>
<g><path style="opacity:1" fill="#1a78a4" d="M 150.5,266.5 C 150.649,267.552 150.483,268.552 150,269.5C 106.209,309.085 82.2086,358.418 78,417.5C 74.0993,474.428 89.0993,525.428 123,570.5C 126.941,571.618 129.775,573.952 131.5,577.5C 130.167,576.5 128.833,575.5 127.5,574.5C 127.167,574.5 126.833,574.5 126.5,574.5C 125.526,572.915 124.026,571.915 122,571.5C 87.6766,525.822 72.6766,474.155 77,416.5C 81.3896,357.057 105.556,307.39 149.5,267.5C 149.5,266.833 149.833,266.5 150.5,266.5 Z"/></g>
<g><path style="opacity:1" fill="#59aed5" d="M 149.5,267.5 C 105.556,307.39 81.3896,357.057 77,416.5C 72.6766,474.155 87.6766,525.822 122,571.5C 124.026,571.915 125.526,572.915 126.5,574.5C 123.503,579.16 121.003,584.16 119,589.5C 117.401,596.297 115.401,602.964 113,609.5C 111.669,617.138 111.002,624.805 111,632.5C 177.38,679.053 243.88,725.387 310.5,771.5C 310.703,773.044 311.37,774.378 312.5,775.5C 317.719,778.212 322.219,781.879 326,786.5C 352.372,814.703 378.539,843.037 404.5,871.5C 396.311,871.318 388.145,871.651 380,872.5C 377.949,872.577 376.116,872.077 374.5,871C 354.123,870.822 333.79,870.322 313.5,869.5C 239.178,866.594 181.012,834.594 139,773.5C 112.093,730.638 101.093,683.972 106,633.5C 52.4509,582.107 28.4509,518.107 34,441.5C 43.7115,372.539 76.5448,317.706 132.5,277C 138.189,273.823 143.856,270.657 149.5,267.5 Z"/></g>
<g><path style="opacity:1" fill="#9bc4d5" d="M 164.5,353.5 C 165.793,352.842 167.293,352.508 169,352.5C 171.821,352.408 174.321,353.074 176.5,354.5C 172.534,353.838 168.534,353.505 164.5,353.5 Z"/></g>
<g><path style="opacity:1" fill="#9bc4d5" d="M 296.5,353.5 C 300.29,352.098 303.956,352.431 307.5,354.5C 303.865,353.886 300.198,353.552 296.5,353.5 Z"/></g>
<g><path style="opacity:1" fill="#a3c8d9" d="M 164.5,353.5 C 156.728,356.597 150.395,361.597 145.5,368.5C 149.189,360.144 155.522,355.144 164.5,353.5 Z"/></g>
<g><path style="opacity:1" fill="#fdfdfe" d="M 164.5,353.5 C 168.534,353.505 172.534,353.838 176.5,354.5C 178.181,356.008 180.181,357.008 182.5,357.5C 183.833,359.5 185.5,361.167 187.5,362.5C 189.588,364.336 190.921,366.669 191.5,369.5C 191.707,372.241 192.707,374.574 194.5,376.5C 195.404,377.209 195.737,378.209 195.5,379.5C 201.397,399.526 208.064,419.193 215.5,438.5C 221.405,454.216 226.739,470.216 231.5,486.5C 232.152,487.725 233.319,488.392 235,488.5C 236.658,488.325 237.991,487.658 239,486.5C 246.809,463.575 254.309,440.575 261.5,417.5C 266.064,401.473 271.397,385.806 277.5,370.5C 279.008,368.819 280.008,366.819 280.5,364.5C 283.859,361.471 287.192,358.471 290.5,355.5C 292.102,353.926 294.102,353.259 296.5,353.5C 300.198,353.552 303.865,353.886 307.5,354.5C 309.181,356.008 311.181,357.008 313.5,357.5C 316.529,360.859 319.529,364.192 322.5,367.5C 323.793,368.842 324.626,370.509 325,372.5C 325.81,376.358 325.643,380.024 324.5,383.5C 322.595,387.216 321.261,391.216 320.5,395.5C 320.737,396.791 320.404,397.791 319.5,398.5C 317.733,400.792 316.733,403.458 316.5,406.5C 314.733,408.792 313.733,411.458 313.5,414.5C 312.935,418.537 311.601,422.203 309.5,425.5C 307.733,427.792 306.733,430.458 306.5,433.5C 304.733,435.792 303.733,438.458 303.5,441.5C 302.935,445.537 301.601,449.203 299.5,452.5C 297.733,454.792 296.733,457.458 296.5,460.5C 294.733,462.792 293.733,465.458 293.5,468.5C 292.935,472.537 291.601,476.203 289.5,479.5C 287.733,481.792 286.733,484.458 286.5,487.5C 284.733,489.792 283.733,492.458 283.5,495.5C 282.935,499.537 281.601,503.203 279.5,506.5C 277.733,508.792 276.733,511.458 276.5,514.5C 274.733,516.792 273.733,519.458 273.5,522.5C 273.737,523.791 273.404,524.791 272.5,525.5C 270.399,528.797 269.065,532.463 268.5,536.5C 266.278,544.112 262.611,550.945 257.5,557C 255.595,558.421 253.595,559.588 251.5,560.5C 248.515,561.326 245.849,562.659 243.5,564.5C 237.167,567.167 230.833,567.167 224.5,564.5C 220.508,562.17 216.508,559.837 212.5,557.5C 205.938,552.076 201.605,545.076 199.5,536.5C 199.267,533.458 198.267,530.792 196.5,528.5C 195.596,527.791 195.263,526.791 195.5,525.5C 195.267,522.458 194.267,519.792 192.5,517.5C 191.596,516.791 191.263,515.791 191.5,514.5C 191.267,511.458 190.267,508.792 188.5,506.5C 187.596,505.791 187.263,504.791 187.5,503.5C 187.267,500.458 186.267,497.792 184.5,495.5C 184.267,492.458 183.267,489.792 181.5,487.5C 180.596,486.791 180.263,485.791 180.5,484.5C 180.267,481.458 179.267,478.792 177.5,476.5C 176.596,475.791 176.263,474.791 176.5,473.5C 176.267,470.458 175.267,467.792 173.5,465.5C 173.267,462.458 172.267,459.792 170.5,457.5C 169.596,456.791 169.263,455.791 169.5,454.5C 169.267,451.458 168.267,448.792 166.5,446.5C 166.267,443.458 165.267,440.792 163.5,438.5C 162.596,437.791 162.263,436.791 162.5,435.5C 162.267,432.458 161.267,429.792 159.5,427.5C 158.596,426.791 158.263,425.791 158.5,424.5C 158.267,421.458 157.267,418.792 155.5,416.5C 155.267,413.458 154.267,410.792 152.5,408.5C 151.596,407.791 151.263,406.791 151.5,405.5C 151.267,402.458 150.267,399.792 148.5,397.5C 147.596,396.791 147.263,395.791 147.5,394.5C 147.072,391.215 146.072,388.215 144.5,385.5C 141.712,379.672 142.045,374.005 145.5,368.5C 150.395,361.597 156.728,356.597 164.5,353.5 Z"/></g>
<g><path style="opacity:1" fill="#fcfdfd" d="M 381.5,353.5 C 390.595,356.259 397.262,361.925 401.5,370.5C 402.887,372.877 403.721,375.543 404,378.5C 404.667,432.5 404.667,486.5 404,540.5C 403.721,543.457 402.887,546.123 401.5,548.5C 397.262,557.075 390.595,562.741 381.5,565.5C 378.833,566.833 376.167,566.833 373.5,565.5C 368.548,563.356 363.881,560.69 359.5,557.5C 357.738,556.738 356.738,555.404 356.5,553.5C 355.342,550.011 354.009,546.678 352.5,543.5C 351.167,487.5 351.167,431.5 352.5,375.5C 356.075,364.924 363.075,357.591 373.5,353.5C 376.167,352.167 378.833,352.167 381.5,353.5 Z"/></g>
<g><path style="opacity:1" fill="#9bc4d5" d="M 381.5,353.5 C 391.862,354.865 398.529,360.531 401.5,370.5C 397.262,361.925 390.595,356.259 381.5,353.5 Z"/></g>
<g><path style="opacity:1" fill="#fcfdfe" d="M 788.5,360.5 C 790.849,362.341 793.515,363.674 796.5,364.5C 798.147,366.326 800.147,367.66 802.5,368.5C 803.585,370.587 805.251,371.92 807.5,372.5C 809.341,373.402 810.674,374.736 811.5,376.5C 812.419,379.089 814.086,381.089 816.5,382.5C 817.906,382.973 818.573,383.973 818.5,385.5C 819.326,388.485 820.659,391.151 822.5,393.5C 824.074,395.102 824.741,397.102 824.5,399.5C 824.5,403.833 824.5,408.167 824.5,412.5C 824.598,414.553 823.931,416.22 822.5,417.5C 817.826,424.519 811.493,429.186 803.5,431.5C 802.167,432.833 800.833,432.833 799.5,431.5C 796.244,430.214 792.911,428.88 789.5,427.5C 784.729,424.381 781.396,420.048 779.5,414.5C 778.59,411.008 776.924,408.008 774.5,405.5C 771.05,397.771 765.05,394.104 756.5,394.5C 750.833,394.5 745.167,394.5 739.5,394.5C 734.032,394.209 729.365,395.876 725.5,399.5C 724.833,400.833 723.833,401.833 722.5,402.5C 721.034,403.347 720.2,404.68 720,406.5C 718.049,414.532 720.882,419.865 728.5,422.5C 731.989,423.658 735.322,424.991 738.5,426.5C 740.515,427.924 742.848,428.59 745.5,428.5C 751.094,429.232 756.427,430.565 761.5,432.5C 764.854,434.258 768.521,435.258 772.5,435.5C 773.791,435.263 774.791,435.596 775.5,436.5C 780.216,438.739 785.216,440.405 790.5,441.5C 792.426,443.293 794.759,444.293 797.5,444.5C 802.165,445.828 806.165,448.161 809.5,451.5C 813.474,455.138 817.474,458.805 821.5,462.5C 828.901,470.648 833.068,480.315 834,491.5C 835.28,502.825 833.447,513.492 828.5,523.5C 826.992,525.181 825.992,527.181 825.5,529.5C 823.674,531.147 822.34,533.147 821.5,535.5C 819.413,536.585 818.08,538.251 817.5,540.5C 816.5,542.167 815.167,543.5 813.5,544.5C 810.208,546.458 807.208,548.791 804.5,551.5C 797.97,556.429 790.637,559.762 782.5,561.5C 779.572,561.565 776.905,562.232 774.5,563.5C 766.782,565.631 758.782,566.631 750.5,566.5C 743.941,566.589 737.608,565.923 731.5,564.5C 728.411,563.215 725.078,562.549 721.5,562.5C 717.048,560.459 712.382,558.792 707.5,557.5C 705.181,557.008 703.181,556.008 701.5,554.5C 699.853,552.674 697.853,551.34 695.5,550.5C 693.596,550.262 692.262,549.262 691.5,547.5C 688.785,544.118 685.785,541.118 682.5,538.5C 680.656,534.808 678.323,531.475 675.5,528.5C 674.674,525.515 673.341,522.849 671.5,520.5C 668.771,515.269 667.104,509.603 666.5,503.5C 666.878,501.283 667.545,499.283 668.5,497.5C 670.341,495.151 671.674,492.485 672.5,489.5C 676.581,486.077 680.914,483.077 685.5,480.5C 690.214,480.353 694.881,480.686 699.5,481.5C 702.198,481.845 704.198,483.178 705.5,485.5C 706.419,488.089 708.086,490.089 710.5,491.5C 711.659,495.151 713.326,498.485 715.5,501.5C 717.237,508.806 720.904,514.973 726.5,520C 727.745,520.791 729.078,521.291 730.5,521.5C 739.62,524.12 748.954,525.12 758.5,524.5C 761.829,524.785 764.829,524.118 767.5,522.5C 770.089,522.539 772.089,521.539 773.5,519.5C 777.485,517.679 780.319,514.679 782,510.5C 782.667,505.5 782.667,500.5 782,495.5C 781.722,494.584 781.222,493.918 780.5,493.5C 779.833,490.833 778.167,489.167 775.5,488.5C 773.973,488.573 772.973,487.906 772.5,486.5C 769.34,484 765.673,482.667 761.5,482.5C 759.485,481.076 757.152,480.41 754.5,480.5C 751.572,480.435 748.905,479.768 746.5,478.5C 742.761,476.898 738.761,475.898 734.5,475.5C 731.848,475.59 729.515,474.924 727.5,473.5C 724.785,471.928 721.785,470.928 718.5,470.5C 714.703,470.128 711.37,468.794 708.5,466.5C 706.151,464.659 703.485,463.326 700.5,462.5C 698.853,460.674 696.853,459.34 694.5,458.5C 693.415,456.413 691.749,455.08 689.5,454.5C 688.118,452.451 686.452,450.785 684.5,449.5C 683.92,447.251 682.587,445.585 680.5,444.5C 678.057,441.948 676.39,438.948 675.5,435.5C 675.072,432.215 674.072,429.215 672.5,426.5C 670.479,420.232 670.146,413.899 671.5,407.5C 672.657,404.727 673.324,401.727 673.5,398.5C 675.019,391.126 678.352,384.793 683.5,379.5C 686.833,376.833 689.833,373.833 692.5,370.5C 696.025,369.241 699.025,367.241 701.5,364.5C 704.645,361.887 708.311,360.221 712.5,359.5C 715.785,359.072 718.785,358.072 721.5,356.5C 739.981,351.379 758.648,351.212 777.5,356C 781.468,357.038 785.135,358.538 788.5,360.5 Z"/></g>
<g><path style="opacity:1" fill="#9bc4d5" d="M 176.5,354.5 C 179.089,354.461 181.089,355.461 182.5,357.5C 180.181,357.008 178.181,356.008 176.5,354.5 Z"/></g>
<g><path style="opacity:1" fill="#9bc4d5" d="M 307.5,354.5 C 310.089,354.461 312.089,355.461 313.5,357.5C 311.181,357.008 309.181,356.008 307.5,354.5 Z"/></g>
<g><path style="opacity:1" fill="#9bc4d5" d="M 290.5,355.5 C 287.192,358.471 283.859,361.471 280.5,364.5C 282.562,360.105 285.896,357.105 290.5,355.5 Z"/></g>
<g><path style="opacity:1" fill="#9bc4d5" d="M 721.5,356.5 C 718.785,358.072 715.785,359.072 712.5,359.5C 715.084,357.528 718.084,356.528 721.5,356.5 Z"/></g>
<g><path style="opacity:1" fill="#9bc4d5" d="M 182.5,357.5 C 185.167,358.167 186.833,359.833 187.5,362.5C 185.5,361.167 183.833,359.5 182.5,357.5 Z"/></g>
<g><path style="opacity:1" fill="#9bc4d5" d="M 313.5,357.5 C 317.895,359.562 320.895,362.896 322.5,367.5C 319.529,364.192 316.529,360.859 313.5,357.5 Z"/></g>
<g><path style="opacity:1" fill="#fcfdfe" d="M 505.5,362.5 C 508.086,365.358 510.42,368.358 512.5,371.5C 514.601,374.797 515.935,378.463 516.5,382.5C 516.41,385.152 517.076,387.485 518.5,389.5C 519.768,391.905 520.435,394.572 520.5,397.5C 520.41,400.152 521.076,402.485 522.5,404.5C 523.768,406.905 524.435,409.572 524.5,412.5C 524.41,415.152 525.076,417.485 526.5,419.5C 527.768,421.905 528.435,424.572 528.5,427.5C 528.41,430.152 529.076,432.485 530.5,434.5C 531.768,436.905 532.435,439.572 532.5,442.5C 532.41,445.152 533.076,447.485 534.5,449.5C 535.768,451.905 536.435,454.572 536.5,457.5C 536.5,458.5 536.5,459.5 536.5,460.5C 538.924,460.808 541.257,460.474 543.5,459.5C 544.642,456.601 545.308,453.601 545.5,450.5C 545.232,448.901 545.566,447.568 546.5,446.5C 548.258,443.146 549.258,439.479 549.5,435.5C 549.232,433.901 549.566,432.568 550.5,431.5C 552.258,428.146 553.258,424.479 553.5,420.5C 553.232,418.901 553.566,417.568 554.5,416.5C 556.258,413.146 557.258,409.479 557.5,405.5C 557.232,403.901 557.566,402.568 558.5,401.5C 560.258,398.146 561.258,394.479 561.5,390.5C 561.232,388.901 561.566,387.568 562.5,386.5C 564.875,381.047 566.875,375.381 568.5,369.5C 569.833,364.833 572.833,361.833 577.5,360.5C 581.048,359.87 584.381,358.87 587.5,357.5C 596.657,356.342 605.991,356.176 615.5,357C 617.058,357.21 618.391,357.71 619.5,358.5C 623.461,360.481 627.461,362.481 631.5,364.5C 632.833,364.5 633.5,365.167 633.5,366.5C 636.078,370.983 638.078,375.649 639.5,380.5C 640.665,433.998 640.832,487.665 640,541.5C 639.721,544.457 638.887,547.123 637.5,549.5C 634.167,556.167 629.167,561.167 622.5,564.5C 618.865,565.114 615.198,565.448 611.5,565.5C 608.592,564.046 605.592,562.546 602.5,561C 600.297,558.628 597.963,556.461 595.5,554.5C 593.103,551.691 591.77,548.358 591.5,544.5C 591.667,523.497 591.5,502.497 591,481.5C 588.619,480.565 586.119,480.232 583.5,480.5C 583.5,481.833 583.5,483.167 583.5,484.5C 583.768,486.099 583.434,487.432 582.5,488.5C 578.409,501.195 575.076,514.195 572.5,527.5C 572.435,530.428 571.768,533.095 570.5,535.5C 569.076,537.515 568.41,539.848 568.5,542.5C 568.737,543.791 568.404,544.791 567.5,545.5C 565.992,547.181 564.992,549.181 564.5,551.5C 564.573,553.027 563.906,554.027 562.5,554.5C 560.167,556.167 558.167,558.167 556.5,560.5C 553.176,563.564 549.176,565.397 544.5,566C 541.304,566.805 538.304,566.638 535.5,565.5C 532.322,563.991 528.989,562.658 525.5,561.5C 524.089,559.086 522.089,557.419 519.5,556.5C 517.738,555.738 516.738,554.404 516.5,552.5C 515.674,549.515 514.341,546.849 512.5,544.5C 510.59,541.548 509.59,538.214 509.5,534.5C 509.258,530.521 508.258,526.854 506.5,523.5C 502.565,510.427 499.232,497.093 496.5,483.5C 496.5,482.5 496.5,481.5 496.5,480.5C 493.881,480.232 491.381,480.565 489,481.5C 488.791,503.857 488.291,526.19 487.5,548.5C 485.583,551.331 483.917,554.331 482.5,557.5C 479.053,562.226 474.386,564.892 468.5,565.5C 464.802,565.448 461.135,565.114 457.5,564.5C 450.311,562.902 445.644,558.569 443.5,551.5C 442.664,547.677 441.664,544.011 440.5,540.5C 439.335,488.002 439.168,435.335 440,382.5C 440.246,377.591 441.746,373.257 444.5,369.5C 448.287,365.37 452.621,362.036 457.5,359.5C 459.877,358.113 462.543,357.279 465.5,357C 474.5,356.333 483.5,356.333 492.5,357C 497.555,357.399 501.889,359.232 505.5,362.5 Z"/></g>
<g><path style="opacity:1" fill="#9bc4d5" d="M 587.5,357.5 C 584.381,358.87 581.048,359.87 577.5,360.5C 580.381,358.32 583.714,357.32 587.5,357.5 Z"/></g>
<g><path style="opacity:1" fill="#9bc4d5" d="M 619.5,358.5 C 624.35,358.925 628.35,360.925 631.5,364.5C 627.461,362.481 623.461,360.481 619.5,358.5 Z"/></g>
<g><path style="opacity:1" fill="#a1c7d8" d="M 457.5,359.5 C 452.621,362.036 448.287,365.37 444.5,369.5C 447.079,363.925 451.412,360.592 457.5,359.5 Z"/></g>
<g><path style="opacity:1" fill="#9bc4d5" d="M 788.5,360.5 C 791.754,360.794 794.421,362.127 796.5,364.5C 793.515,363.674 790.849,362.341 788.5,360.5 Z"/></g>
<g><path style="opacity:1" fill="#9ec5d7" d="M 373.5,353.5 C 363.075,357.591 356.075,364.924 352.5,375.5C 353.195,367.616 356.862,361.45 363.5,357C 366.561,354.965 369.895,353.799 373.5,353.5 Z"/></g>
<g><path style="opacity:1" fill="#9bc4d5" d="M 505.5,362.5 C 509.504,364.163 511.837,367.163 512.5,371.5C 510.42,368.358 508.086,365.358 505.5,362.5 Z"/></g>
<g><path style="opacity:1" fill="#9bc4d5" d="M 280.5,364.5 C 280.008,366.819 279.008,368.819 277.5,370.5C 277.461,367.911 278.461,365.911 280.5,364.5 Z"/></g>
<g><path style="opacity:1" fill="#9bc4d5" d="M 701.5,364.5 C 699.025,367.241 696.025,369.241 692.5,370.5C 694.951,367.723 697.951,365.723 701.5,364.5 Z"/></g>
<g><path style="opacity:1" fill="#9bc4d5" d="M 796.5,364.5 C 799.198,364.845 801.198,366.178 802.5,368.5C 800.147,367.66 798.147,366.326 796.5,364.5 Z"/></g>
<g><path style="opacity:1" fill="#9bc4d5" d="M 633.5,366.5 C 637.618,370.165 639.618,374.832 639.5,380.5C 638.078,375.649 636.078,370.983 633.5,366.5 Z"/></g>
<g><path style="opacity:1" fill="#9bc4d5" d="M 802.5,368.5 C 804.749,369.08 806.415,370.413 807.5,372.5C 805.251,371.92 803.585,370.587 802.5,368.5 Z"/></g>
<g><path style="opacity:1" fill="#9bc4d5" d="M 191.5,369.5 C 193.293,371.426 194.293,373.759 194.5,376.5C 192.707,374.574 191.707,372.241 191.5,369.5 Z"/></g>
<g><path style="opacity:1" fill="#9bc4d5" d="M 568.5,369.5 C 566.875,375.381 564.875,381.047 562.5,386.5C 563.332,380.334 565.332,374.667 568.5,369.5 Z"/></g>
<g><path style="opacity:1" fill="#9bc4d5" d="M 692.5,370.5 C 689.833,373.833 686.833,376.833 683.5,379.5C 685.5,375.5 688.5,372.5 692.5,370.5 Z"/></g>
<g><path style="opacity:1" fill="#a3c8d8" d="M 811.5,376.5 C 813.914,377.911 815.581,379.911 816.5,382.5C 814.086,381.089 812.419,379.089 811.5,376.5 Z"/></g>
<g><path style="opacity:1" fill="#9bc4d5" d="M 195.5,379.5 C 202.936,398.807 209.603,418.474 215.5,438.5C 208.064,419.193 201.397,399.526 195.5,379.5 Z"/></g>
<g><path style="opacity:1" fill="#9bc4d5" d="M 516.5,382.5 C 517.924,384.515 518.59,386.848 518.5,389.5C 517.076,387.485 516.41,385.152 516.5,382.5 Z"/></g>
<g><path style="opacity:1" fill="#9bc4d5" d="M 324.5,383.5 C 324.139,387.915 322.806,391.915 320.5,395.5C 321.261,391.216 322.595,387.216 324.5,383.5 Z"/></g>
<g><path style="opacity:1" fill="#9bc4d5" d="M 144.5,385.5 C 146.072,388.215 147.072,391.215 147.5,394.5C 145.528,391.916 144.528,388.916 144.5,385.5 Z"/></g>
<g><path style="opacity:1" fill="#9bc4d5" d="M 818.5,385.5 C 820.873,387.579 822.206,390.246 822.5,393.5C 820.659,391.151 819.326,388.485 818.5,385.5 Z"/></g>
<g><path style="opacity:1" fill="#9bc4d5" d="M 561.5,390.5 C 561.258,394.479 560.258,398.146 558.5,401.5C 558.742,397.521 559.742,393.854 561.5,390.5 Z"/></g>
<g><path style="opacity:1" fill="#9bc4d5" d="M 739.5,394.5 C 734.783,395.741 730.116,397.408 725.5,399.5C 729.365,395.876 734.032,394.209 739.5,394.5 Z"/></g>
<g><path style="opacity:1" fill="#9bc4d5" d="M 756.5,394.5 C 765.05,394.104 771.05,397.771 774.5,405.5C 771.703,403.205 769.036,400.705 766.5,398C 763.15,396.514 759.816,395.347 756.5,394.5 Z"/></g>
<g><path style="opacity:1" fill="#9bc4d5" d="M 148.5,397.5 C 150.267,399.792 151.267,402.458 151.5,405.5C 149.733,403.208 148.733,400.542 148.5,397.5 Z"/></g>
<g><path style="opacity:1" fill="#9bc4d5" d="M 520.5,397.5 C 521.924,399.515 522.59,401.848 522.5,404.5C 521.076,402.485 520.41,400.152 520.5,397.5 Z"/></g>
<g><path style="opacity:1" fill="#9bc4d5" d="M 319.5,398.5 C 319.267,401.542 318.267,404.208 316.5,406.5C 316.733,403.458 317.733,400.792 319.5,398.5 Z"/></g>
<g><path style="opacity:1" fill="#9bc4d5" d="M 673.5,398.5 C 673.324,401.727 672.657,404.727 671.5,407.5C 671.215,404.171 671.882,401.171 673.5,398.5 Z"/></g>
<g><path style="opacity:1" fill="#a4c9d9" d="M 824.5,399.5 C 826.448,403.99 826.448,408.323 824.5,412.5C 824.5,408.167 824.5,403.833 824.5,399.5 Z"/></g>
<g><path style="opacity:1" fill="#9bc4d5" d="M 557.5,405.5 C 557.258,409.479 556.258,413.146 554.5,416.5C 554.742,412.521 555.742,408.854 557.5,405.5 Z"/></g>
<g><path style="opacity:1" fill="#9bc4d5" d="M 774.5,405.5 C 776.924,408.008 778.59,411.008 779.5,414.5C 777.076,411.992 775.41,408.992 774.5,405.5 Z"/></g>
<g><path style="opacity:1" fill="#9bc4d5" d="M 316.5,406.5 C 316.267,409.542 315.267,412.208 313.5,414.5C 313.733,411.458 314.733,408.792 316.5,406.5 Z"/></g>
<g><path style="opacity:1" fill="#9bc4d5" d="M 152.5,408.5 C 154.267,410.792 155.267,413.458 155.5,416.5C 153.733,414.208 152.733,411.542 152.5,408.5 Z"/></g>
<g><path style="opacity:1" fill="#9bc4d5" d="M 524.5,412.5 C 525.924,414.515 526.59,416.848 526.5,419.5C 525.076,417.485 524.41,415.152 524.5,412.5 Z"/></g>
<g><path style="opacity:1" fill="#aaccdb" d="M 722.5,402.5 C 718.671,411.008 720.671,417.674 728.5,422.5C 720.882,419.865 718.049,414.532 720,406.5C 720.2,404.68 721.034,403.347 722.5,402.5 Z"/></g>
<g><path style="opacity:1" fill="#9bc4d5" d="M 155.5,416.5 C 157.267,418.792 158.267,421.458 158.5,424.5C 156.733,422.208 155.733,419.542 155.5,416.5 Z"/></g>
<g><path style="opacity:1" fill="#9bc4d5" d="M 261.5,417.5 C 254.309,440.575 246.809,463.575 239,486.5C 237.991,487.658 236.658,488.325 235,488.5C 233.319,488.392 232.152,487.725 231.5,486.5C 234.009,488.157 236.175,487.824 238,485.5C 245.371,462.548 253.205,439.882 261.5,417.5 Z"/></g>
<g><path style="opacity:1" fill="#9bc4d5" d="M 822.5,417.5 C 819.002,425.996 812.669,430.662 803.5,431.5C 811.493,429.186 817.826,424.519 822.5,417.5 Z"/></g>
<g><path style="opacity:1" fill="#9bc4d5" d="M 553.5,420.5 C 553.258,424.479 552.258,428.146 550.5,431.5C 550.742,427.521 551.742,423.854 553.5,420.5 Z"/></g>
<g><path style="opacity:1" fill="#9bc4d5" d="M 309.5,425.5 C 309.267,428.542 308.267,431.208 306.5,433.5C 306.733,430.458 307.733,427.792 309.5,425.5 Z"/></g>
<g><path style="opacity:1" fill="#9bc4d5" d="M 672.5,426.5 C 674.072,429.215 675.072,432.215 675.5,435.5C 673.528,432.916 672.528,429.916 672.5,426.5 Z"/></g>
<g><path style="opacity:1" fill="#9bc4d5" d="M 738.5,426.5 C 741.152,426.41 743.485,427.076 745.5,428.5C 742.848,428.59 740.515,427.924 738.5,426.5 Z"/></g>
<g><path style="opacity:1" fill="#9bc4d5" d="M 159.5,427.5 C 161.267,429.792 162.267,432.458 162.5,435.5C 160.733,433.208 159.733,430.542 159.5,427.5 Z"/></g>
<g><path style="opacity:1" fill="#9bc4d5" d="M 528.5,427.5 C 529.924,429.515 530.59,431.848 530.5,434.5C 529.076,432.485 528.41,430.152 528.5,427.5 Z"/></g>
<g><path style="opacity:1" fill="#9bc4d5" d="M 789.5,427.5 C 792.911,428.88 796.244,430.214 799.5,431.5C 795.433,431.794 792.1,430.46 789.5,427.5 Z"/></g>
<g><path style="opacity:1" fill="#9bc4d5" d="M 761.5,432.5 C 765.479,432.742 769.146,433.742 772.5,435.5C 768.521,435.258 764.854,434.258 761.5,432.5 Z"/></g>
<g><path style="opacity:1" fill="#9bc4d5" d="M 306.5,433.5 C 306.267,436.542 305.267,439.208 303.5,441.5C 303.733,438.458 304.733,435.792 306.5,433.5 Z"/></g>
<g><path style="opacity:1" fill="#9bc4d5" d="M 549.5,435.5 C 549.258,439.479 548.258,443.146 546.5,446.5C 546.742,442.521 547.742,438.854 549.5,435.5 Z"/></g>
<g><path style="opacity:1" fill="#9bc4d5" d="M 775.5,436.5 C 780.915,437.194 785.915,438.86 790.5,441.5C 785.216,440.405 780.216,438.739 775.5,436.5 Z"/></g>
<g><path style="opacity:1" fill="#9bc4d5" d="M 163.5,438.5 C 165.267,440.792 166.267,443.458 166.5,446.5C 164.733,444.208 163.733,441.542 163.5,438.5 Z"/></g>
<g><path style="opacity:1" fill="#9bc4d5" d="M 790.5,441.5 C 793.241,441.707 795.574,442.707 797.5,444.5C 794.759,444.293 792.426,443.293 790.5,441.5 Z"/></g>
<g><path style="opacity:1" fill="#9bc4d5" d="M 532.5,442.5 C 533.924,444.515 534.59,446.848 534.5,449.5C 533.076,447.485 532.41,445.152 532.5,442.5 Z"/></g>
<g><path style="opacity:1" fill="#9bc4d5" d="M 680.5,444.5 C 682.587,445.585 683.92,447.251 684.5,449.5C 682.413,448.415 681.08,446.749 680.5,444.5 Z"/></g>
<g><path style="opacity:1" fill="#9bc4d5" d="M 166.5,446.5 C 168.267,448.792 169.267,451.458 169.5,454.5C 167.733,452.208 166.733,449.542 166.5,446.5 Z"/></g>
<g><path style="opacity:1" fill="#a3c8d9" d="M 684.5,449.5 C 686.452,450.785 688.118,452.451 689.5,454.5C 686.856,453.856 685.189,452.189 684.5,449.5 Z"/></g>
<g><path style="opacity:1" fill="#9bc4d5" d="M 809.5,451.5 C 814.777,453.777 818.777,457.444 821.5,462.5C 817.474,458.805 813.474,455.138 809.5,451.5 Z"/></g>
<g><path style="opacity:1" fill="#9bc4d5" d="M 299.5,452.5 C 299.267,455.542 298.267,458.208 296.5,460.5C 296.733,457.458 297.733,454.792 299.5,452.5 Z"/></g>
<g><path style="opacity:1" fill="#9bc4d5" d="M 689.5,454.5 C 691.749,455.08 693.415,456.413 694.5,458.5C 692.251,457.92 690.585,456.587 689.5,454.5 Z"/></g>
<g><path style="opacity:1" fill="#9bc4d5" d="M 170.5,457.5 C 172.267,459.792 173.267,462.458 173.5,465.5C 171.733,463.208 170.733,460.542 170.5,457.5 Z"/></g>
<g><path style="opacity:1" fill="#9bc4d5" d="M 694.5,458.5 C 696.853,459.34 698.853,460.674 700.5,462.5C 697.802,462.155 695.802,460.822 694.5,458.5 Z"/></g>
<g><path style="opacity:1" fill="#bcd7e3" d="M 545.5,450.5 C 545.308,453.601 544.642,456.601 543.5,459.5C 541.257,460.474 538.924,460.808 536.5,460.5C 536.5,459.5 536.5,458.5 536.5,457.5C 538.194,459.438 540.194,459.771 542.5,458.5C 543.209,455.616 544.209,452.949 545.5,450.5 Z"/></g>
<g><path style="opacity:1" fill="#9bc4d5" d="M 296.5,460.5 C 296.267,463.542 295.267,466.208 293.5,468.5C 293.733,465.458 294.733,462.792 296.5,460.5 Z"/></g>
<g><path style="opacity:1" fill="#9bc4d5" d="M 700.5,462.5 C 703.485,463.326 706.151,464.659 708.5,466.5C 705.246,466.206 702.579,464.873 700.5,462.5 Z"/></g>
<g><path style="opacity:1" fill="#9bc4d5" d="M 173.5,465.5 C 175.267,467.792 176.267,470.458 176.5,473.5C 174.733,471.208 173.733,468.542 173.5,465.5 Z"/></g>
<g><path style="opacity:1" fill="#9bc4d5" d="M 718.5,470.5 C 721.785,470.928 724.785,471.928 727.5,473.5C 724.084,473.472 721.084,472.472 718.5,470.5 Z"/></g>
<g><path style="opacity:1" fill="#9bc4d5" d="M 734.5,475.5 C 738.761,475.898 742.761,476.898 746.5,478.5C 742.163,478.416 738.163,477.416 734.5,475.5 Z"/></g>
<g><path style="opacity:1" fill="#9bc4d5" d="M 177.5,476.5 C 179.267,478.792 180.267,481.458 180.5,484.5C 178.733,482.208 177.733,479.542 177.5,476.5 Z"/></g>
<g><path style="opacity:1" fill="#9bc4d5" d="M 289.5,479.5 C 289.267,482.542 288.267,485.208 286.5,487.5C 286.733,484.458 287.733,481.792 289.5,479.5 Z"/></g>
<g><path style="opacity:1" fill="#a6cada" d="M 699.5,481.5 C 694.881,480.686 690.214,480.353 685.5,480.5C 690.254,478.173 694.921,478.506 699.5,481.5 Z"/></g>
<g><path style="opacity:1" fill="#9bc4d5" d="M 685.5,480.5 C 680.914,483.077 676.581,486.077 672.5,489.5C 672.859,487.629 673.859,486.129 675.5,485C 678.48,482.676 681.813,481.176 685.5,480.5 Z"/></g>
<g><path style="opacity:1" fill="#9bc4d5" d="M 754.5,480.5 C 757.152,480.41 759.485,481.076 761.5,482.5C 758.848,482.59 756.515,481.924 754.5,480.5 Z"/></g>
<g><path style="opacity:1" fill="#cfe2eb" d="M 496.5,483.5 C 494.631,481.424 492.464,481.091 490,482.5C 489.667,503.5 489.333,524.5 489,545.5C 488.768,546.737 488.268,547.737 487.5,548.5C 488.291,526.19 488.791,503.857 489,481.5C 491.381,480.565 493.881,480.232 496.5,480.5C 496.5,481.5 496.5,482.5 496.5,483.5 Z"/></g>
<g><path style="opacity:1" fill="#a1c7d8" d="M 591.5,544.5 C 590.668,524.004 590.168,503.337 590,482.5C 588.301,481.594 586.467,481.261 584.5,481.5C 584.737,482.791 584.404,483.791 583.5,484.5C 583.5,483.167 583.5,481.833 583.5,480.5C 586.119,480.232 588.619,480.565 591,481.5C 591.5,502.497 591.667,523.497 591.5,544.5 Z"/></g>
<g><path style="opacity:1" fill="#9bc4d5" d="M 761.5,482.5 C 765.673,482.667 769.34,484 772.5,486.5C 768.617,485.541 764.95,484.208 761.5,482.5 Z"/></g>
<g><path style="opacity:1" fill="#9bc4d5" d="M 181.5,487.5 C 183.267,489.792 184.267,492.458 184.5,495.5C 182.733,493.208 181.733,490.542 181.5,487.5 Z"/></g>
<g><path style="opacity:1" fill="#9bc4d5" d="M 286.5,487.5 C 286.267,490.542 285.267,493.208 283.5,495.5C 283.733,492.458 284.733,489.792 286.5,487.5 Z"/></g>
<g><path style="opacity:1" fill="#a6cada" d="M 705.5,485.5 C 707.914,486.911 709.581,488.911 710.5,491.5C 708.086,490.089 706.419,488.089 705.5,485.5 Z"/></g>
<g><path style="opacity:1" fill="#9bc4d5" d="M 582.5,488.5 C 579.924,501.805 576.591,514.805 572.5,527.5C 575.076,514.195 578.409,501.195 582.5,488.5 Z"/></g>
<g><path style="opacity:1" fill="#9bc4d5" d="M 775.5,488.5 C 778.167,489.167 779.833,490.833 780.5,493.5C 778.5,492.167 776.833,490.5 775.5,488.5 Z"/></g>
<g><path style="opacity:1" fill="#9bc4d5" d="M 672.5,489.5 C 671.674,492.485 670.341,495.151 668.5,497.5C 668.794,494.246 670.127,491.579 672.5,489.5 Z"/></g>
<g><path style="opacity:1" fill="#9bc4d5" d="M 710.5,491.5 C 713.207,494.247 714.873,497.58 715.5,501.5C 713.326,498.485 711.659,495.151 710.5,491.5 Z"/></g>
<g><path style="opacity:1" fill="#9bc4d5" d="M 780.5,493.5 C 781.222,493.918 781.722,494.584 782,495.5C 782.667,500.5 782.667,505.5 782,510.5C 780.319,514.679 777.485,517.679 773.5,519.5C 781.371,512.476 783.704,503.81 780.5,493.5 Z"/></g>
<g><path style="opacity:1" fill="#59aed5" d="M 893.5,494.5 C 895.66,497.48 897.827,500.48 900,503.5C 903.416,511.393 907.416,518.393 912,524.5C 916.965,534.292 922.132,543.959 927.5,553.5C 949.349,591.405 958.516,632.739 955,677.5C 949.737,722.905 933.071,762.572 905,796.5C 895.833,804.333 887.333,812.833 879.5,822C 872.976,826.16 866.642,830.826 860.5,836C 850.949,841.275 841.282,846.275 831.5,851C 789.205,913.641 730.539,948.808 655.5,956.5C 700.074,940.926 736.074,913.926 763.5,875.5C 764.489,871.893 764.823,868.226 764.5,864.5C 771.884,864.16 779.217,863.327 786.5,862C 800.604,857.974 814.604,853.641 828.5,849C 850.134,816.098 862.134,780.098 864.5,741C 870.803,662.2 876.803,583.367 882.5,504.5C 882.5,503.5 882.5,502.5 882.5,501.5C 885.456,500.863 888.456,500.363 891.5,500C 893.155,498.556 893.822,496.722 893.5,494.5 Z"/></g>
<g><path style="opacity:1" fill="#9bc4d5" d="M 184.5,495.5 C 186.267,497.792 187.267,500.458 187.5,503.5C 185.733,501.208 184.733,498.542 184.5,495.5 Z"/></g>
<g><path style="opacity:1" fill="#9bc4d5" d="M 715.5,501.5 C 718.993,509.322 723.993,515.989 730.5,521.5C 729.078,521.291 727.745,520.791 726.5,520C 720.904,514.973 717.237,508.806 715.5,501.5 Z"/></g>
<g><path style="opacity:1" fill="#c6dde7" d="M 882.5,501.5 C 882.5,502.5 882.5,503.5 882.5,504.5C 879.821,511.506 877.154,518.506 874.5,525.5C 875.172,521.812 876.005,518.145 877,514.5C 879.047,509.584 880.88,505.25 882.5,501.5 Z"/></g>
<g><path style="opacity:1" fill="#fefefe" d="M 882.5,504.5 C 876.803,583.367 870.803,662.2 864.5,741C 862.134,780.098 850.134,816.098 828.5,849C 814.604,853.641 800.604,857.974 786.5,862C 779.217,863.327 771.884,864.16 764.5,864.5C 763.833,864.5 763.5,864.833 763.5,865.5C 761.897,865.688 760.563,865.188 759.5,864C 760.818,861.176 762.485,858.676 764.5,856.5C 765.983,854.906 767.483,853.24 769,851.5C 773.275,842.618 777.275,833.618 781,824.5C 802.521,757.602 823.854,690.602 845,623.5C 845.953,620.568 846.453,617.568 846.5,614.5C 851.531,603.408 855.198,591.741 857.5,579.5C 861.323,571.692 863.99,563.358 865.5,554.5C 869.549,546.348 872.215,537.682 873.5,528.5C 873.263,527.209 873.596,526.209 874.5,525.5C 877.154,518.506 879.821,511.506 882.5,504.5 Z"/></g>
<g><path style="opacity:1" fill="#9bc4d5" d="M 188.5,506.5 C 190.267,508.792 191.267,511.458 191.5,514.5C 189.733,512.208 188.733,509.542 188.5,506.5 Z"/></g>
<g><path style="opacity:1" fill="#9bc4d5" d="M 279.5,506.5 C 279.267,509.542 278.267,512.208 276.5,514.5C 276.733,511.458 277.733,508.792 279.5,506.5 Z"/></g>
<g><path style="opacity:1" fill="#9bc4d5" d="M 276.5,514.5 C 276.267,517.542 275.267,520.208 273.5,522.5C 273.733,519.458 274.733,516.792 276.5,514.5 Z"/></g>
<g><path style="opacity:1" fill="#9bc4d5" d="M 192.5,517.5 C 194.267,519.792 195.267,522.458 195.5,525.5C 193.733,523.208 192.733,520.542 192.5,517.5 Z"/></g>
<g><path style="opacity:1" fill="#9bc4d5" d="M 773.5,519.5 C 772.089,521.539 770.089,522.539 767.5,522.5C 769.181,520.992 771.181,519.992 773.5,519.5 Z"/></g>
<g><path style="opacity:1" fill="#9bc4d5" d="M 671.5,520.5 C 673.341,522.849 674.674,525.515 675.5,528.5C 673.127,526.421 671.794,523.754 671.5,520.5 Z"/></g>
<g><path style="opacity:1" fill="#9bc4d5" d="M 767.5,522.5 C 764.829,524.118 761.829,524.785 758.5,524.5C 761.273,523.343 764.273,522.676 767.5,522.5 Z"/></g>
<g><path style="opacity:1" fill="#9bc4d5" d="M 506.5,523.5 C 508.258,526.854 509.258,530.521 509.5,534.5C 507.742,531.146 506.742,527.479 506.5,523.5 Z"/></g>
<g><path style="opacity:1" fill="#9bc4d5" d="M 828.5,523.5 C 828.539,526.089 827.539,528.089 825.5,529.5C 825.992,527.181 826.992,525.181 828.5,523.5 Z"/></g>
<g><path style="opacity:1" fill="#9bc4d5" d="M 272.5,525.5 C 271.935,529.537 270.601,533.203 268.5,536.5C 269.065,532.463 270.399,528.797 272.5,525.5 Z"/></g>
<g><path style="opacity:1" fill="#9bc4d5" d="M 196.5,528.5 C 198.267,530.792 199.267,533.458 199.5,536.5C 197.733,534.208 196.733,531.542 196.5,528.5 Z"/></g>
<g><path style="opacity:1" fill="#9bc4d5" d="M 675.5,528.5 C 678.323,531.475 680.656,534.808 682.5,538.5C 679.185,535.875 676.851,532.542 675.5,528.5 Z"/></g>
<g><path style="opacity:1" fill="#9bc4d5" d="M 825.5,529.5 C 825.155,532.198 823.822,534.198 821.5,535.5C 822.34,533.147 823.674,531.147 825.5,529.5 Z"/></g>
<g><path style="opacity:1" fill="#c5dce7" d="M 873.5,528.5 C 872.215,537.682 869.549,546.348 865.5,554.5C 867.992,545.695 870.659,537.029 873.5,528.5 Z"/></g>
<g><path style="opacity:1" fill="#9bc4d5" d="M 570.5,535.5 C 570.59,538.152 569.924,540.485 568.5,542.5C 568.41,539.848 569.076,537.515 570.5,535.5 Z"/></g>
<g><path style="opacity:1" fill="#9bc4d5" d="M 821.5,535.5 C 820.92,537.749 819.587,539.415 817.5,540.5C 818.08,538.251 819.413,536.585 821.5,535.5 Z"/></g>
<g><path style="opacity:1" fill="#a0c6d7" d="M 682.5,538.5 C 685.785,541.118 688.785,544.118 691.5,547.5C 687.522,545.522 684.522,542.522 682.5,538.5 Z"/></g>
<g><path style="opacity:1" fill="#9bc4d5" d="M 440.5,540.5 C 441.664,544.011 442.664,547.677 443.5,551.5C 441.126,548.314 440.126,544.647 440.5,540.5 Z"/></g>
<g><path style="opacity:1" fill="#9bc4d5" d="M 352.5,543.5 C 354.009,546.678 355.342,550.011 356.5,553.5C 353.819,550.808 352.486,547.475 352.5,543.5 Z"/></g>
<g><path style="opacity:1" fill="#9bc4d5" d="M 512.5,544.5 C 514.341,546.849 515.674,549.515 516.5,552.5C 514.127,550.421 512.794,547.754 512.5,544.5 Z"/></g>
<g><path style="opacity:1" fill="#9bc4d5" d="M 813.5,544.5 C 811.363,547.973 808.363,550.306 804.5,551.5C 807.208,548.791 810.208,546.458 813.5,544.5 Z"/></g>
<g><path style="opacity:1" fill="#9bc4d5" d="M 567.5,545.5 C 567.539,548.089 566.539,550.089 564.5,551.5C 564.992,549.181 565.992,547.181 567.5,545.5 Z"/></g>
<g><path style="opacity:1" fill="#9bc4d5" d="M 401.5,548.5 C 398.529,558.469 391.862,564.135 381.5,565.5C 390.595,562.741 397.262,557.075 401.5,548.5 Z"/></g>
<g><path style="opacity:1" fill="#9bc4d5" d="M 487.5,548.5 C 487.116,552.272 485.45,555.272 482.5,557.5C 483.917,554.331 485.583,551.331 487.5,548.5 Z"/></g>
<g><path style="opacity:1" fill="#9bc4d5" d="M 637.5,549.5 C 635.5,557.5 630.5,562.5 622.5,564.5C 629.167,561.167 634.167,556.167 637.5,549.5 Z"/></g>
<g><path style="opacity:1" fill="#9bc4d5" d="M 695.5,550.5 C 697.853,551.34 699.853,552.674 701.5,554.5C 698.802,554.155 696.802,552.822 695.5,550.5 Z"/></g>
<g><path style="opacity:1" fill="#9bc4d5" d="M 562.5,554.5 C 561.5,557.5 559.5,559.5 556.5,560.5C 558.167,558.167 560.167,556.167 562.5,554.5 Z"/></g>
<g><path style="opacity:1" fill="#9bc4d5" d="M 595.5,554.5 C 597.963,556.461 600.297,558.628 602.5,561C 605.592,562.546 608.592,564.046 611.5,565.5C 604.063,564.789 598.73,561.123 595.5,554.5 Z"/></g>
<g><path style="opacity:1" fill="#9bc4d5" d="M 212.5,557.5 C 216.508,559.837 220.508,562.17 224.5,564.5C 219.55,563.695 215.55,561.362 212.5,557.5 Z"/></g>
<g><path style="opacity:1" fill="#9bc4d5" d="M 707.5,557.5 C 712.382,558.792 717.048,560.459 721.5,562.5C 716.331,562.001 711.664,560.334 707.5,557.5 Z"/></g>
<g><path style="opacity:1" fill="#9fc6d7" d="M 359.5,557.5 C 363.881,560.69 368.548,563.356 373.5,565.5C 367.614,564.892 362.947,562.226 359.5,557.5 Z"/></g>
<g><path style="opacity:1" fill="#a6cada" d="M 519.5,556.5 C 522.089,557.419 524.089,559.086 525.5,561.5C 522.911,560.581 520.911,558.914 519.5,556.5 Z"/></g>
<g><path style="opacity:1" fill="#cee1eb" d="M 865.5,554.5 C 863.99,563.358 861.323,571.692 857.5,579.5C 859.777,571.003 862.444,562.67 865.5,554.5 Z"/></g>
<g><path style="opacity:1" fill="#9bc4d5" d="M 251.5,560.5 C 249.421,562.873 246.754,564.206 243.5,564.5C 245.849,562.659 248.515,561.326 251.5,560.5 Z"/></g>
<g><path style="opacity:1" fill="#9bc4d5" d="M 525.5,561.5 C 528.989,562.658 532.322,563.991 535.5,565.5C 531.525,565.514 528.192,564.181 525.5,561.5 Z"/></g>
<g><path style="opacity:1" fill="#9bc4d5" d="M 782.5,561.5 C 780.162,563.04 777.495,563.706 774.5,563.5C 776.905,562.232 779.572,561.565 782.5,561.5 Z"/></g>
<g><path style="opacity:1" fill="#9bc4d5" d="M 721.5,562.5 C 725.078,562.549 728.411,563.215 731.5,564.5C 727.878,564.678 724.544,564.011 721.5,562.5 Z"/></g>
<g><path style="opacity:1" fill="#9bc4d5" d="M 457.5,564.5 C 461.135,565.114 464.802,565.448 468.5,565.5C 464.71,566.902 461.044,566.569 457.5,564.5 Z"/></g>
<g><path style="opacity:1" fill="#9bc4d5" d="M 622.5,564.5 C 618.956,566.569 615.29,566.902 611.5,565.5C 615.198,565.448 618.865,565.114 622.5,564.5 Z"/></g>
<g><path style="opacity:1" fill="#6db7d9" d="M 126.5,574.5 C 126.833,574.5 127.167,574.5 127.5,574.5C 118.424,592.472 113.258,611.472 112,631.5C 176.667,676.833 241.333,722.167 306,767.5C 306.464,766.906 306.631,766.239 306.5,765.5C 308.5,766.833 310.167,768.5 311.5,770.5C 310.833,770.5 310.5,770.833 310.5,771.5C 243.88,725.387 177.38,679.053 111,632.5C 111.002,624.805 111.669,617.138 113,609.5C 115.401,602.964 117.401,596.297 119,589.5C 121.003,584.16 123.503,579.16 126.5,574.5 Z"/></g>
<g><path style="opacity:1" fill="#fefefe" d="M 127.5,574.5 C 128.833,575.5 130.167,576.5 131.5,577.5C 132.5,577.833 133.167,578.5 133.5,579.5C 136.77,584.44 140.77,588.773 145.5,592.5C 146.167,592.5 146.5,592.833 146.5,593.5C 149.77,598.44 153.77,602.773 158.5,606.5C 159.167,606.5 159.5,606.833 159.5,607.5C 162.77,612.44 166.77,616.773 171.5,620.5C 172.5,620.833 173.167,621.5 173.5,622.5C 176.77,627.44 180.77,631.773 185.5,635.5C 186.167,635.5 186.5,635.833 186.5,636.5C 189.77,641.44 193.77,645.773 198.5,649.5C 199.167,649.5 199.5,649.833 199.5,650.5C 202.77,655.44 206.77,659.773 211.5,663.5C 212.5,663.833 213.167,664.5 213.5,665.5C 216.77,670.44 220.77,674.773 225.5,678.5C 226.167,678.5 226.5,678.833 226.5,679.5C 229.77,684.44 233.77,688.773 238.5,692.5C 239.167,692.5 239.5,692.833 239.5,693.5C 242.77,698.44 246.77,702.773 251.5,706.5C 252.5,706.833 253.167,707.5 253.5,708.5C 256.77,713.44 260.77,717.773 265.5,721.5C 266.167,721.5 266.5,721.833 266.5,722.5C 269.77,727.44 273.77,731.773 278.5,735.5C 279.167,735.5 279.5,735.833 279.5,736.5C 282.77,741.44 286.77,745.773 291.5,749.5C 292.5,749.833 293.167,750.5 293.5,751.5C 296.101,755.771 299.434,759.437 303.5,762.5C 304.306,763.728 305.306,764.728 306.5,765.5C 306.631,766.239 306.464,766.906 306,767.5C 241.333,722.167 176.667,676.833 112,631.5C 113.258,611.472 118.424,592.472 127.5,574.5 Z"/></g>
<g><path style="opacity:1" fill="#99c2d4" d="M 133.5,579.5 C 138.23,583.227 142.23,587.56 145.5,592.5C 140.77,588.773 136.77,584.44 133.5,579.5 Z"/></g>
<g><path style="opacity:1" fill="#9ac2d5" d="M 146.5,593.5 C 151.23,597.227 155.23,601.56 158.5,606.5C 153.77,602.773 149.77,598.44 146.5,593.5 Z"/></g>
<g><path style="opacity:1" fill="#c4dbe6" d="M 857.5,579.5 C 855.198,591.741 851.531,603.408 846.5,614.5C 850.02,602.744 853.686,591.078 857.5,579.5 Z"/></g>
<g><path style="opacity:1" fill="#9bc3d5" d="M 159.5,607.5 C 164.23,611.227 168.23,615.56 171.5,620.5C 166.77,616.773 162.77,612.44 159.5,607.5 Z"/></g>
<g><path style="opacity:1" fill="#99c2d4" d="M 173.5,622.5 C 178.23,626.227 182.23,630.56 185.5,635.5C 180.77,631.773 176.77,627.44 173.5,622.5 Z"/></g>
<g><path style="opacity:1" fill="#9ac2d5" d="M 186.5,636.5 C 191.23,640.227 195.23,644.56 198.5,649.5C 193.77,645.773 189.77,641.44 186.5,636.5 Z"/></g>
<g><path style="opacity:1" fill="#9cc3d5" d="M 199.5,650.5 C 204.23,654.227 208.23,658.56 211.5,663.5C 206.77,659.773 202.77,655.44 199.5,650.5 Z"/></g>
<g><path style="opacity:1" fill="#9ac2d4" d="M 213.5,665.5 C 218.23,669.227 222.23,673.56 225.5,678.5C 220.77,674.773 216.77,670.44 213.5,665.5 Z"/></g>
<g><path style="opacity:1" fill="#cfe2eb" d="M 846.5,614.5 C 846.453,617.568 845.953,620.568 845,623.5C 823.854,690.602 802.521,757.602 781,824.5C 777.275,833.618 773.275,842.618 769,851.5C 767.483,853.24 765.983,854.906 764.5,856.5C 770.709,846.063 775.876,835.063 780,823.5C 802.236,753.777 824.403,684.111 846.5,614.5 Z"/></g>
<g><path style="opacity:1" fill="#9ac2d5" d="M 226.5,679.5 C 231.23,683.227 235.23,687.56 238.5,692.5C 233.77,688.773 229.77,684.44 226.5,679.5 Z"/></g>
<g><path style="opacity:1" fill="#9bc3d5" d="M 239.5,693.5 C 244.23,697.227 248.23,701.56 251.5,706.5C 246.77,702.773 242.77,698.44 239.5,693.5 Z"/></g>
<g><path style="opacity:1" fill="#9ac2d4" d="M 253.5,708.5 C 258.23,712.227 262.23,716.56 265.5,721.5C 260.77,717.773 256.77,713.44 253.5,708.5 Z"/></g>
<g><path style="opacity:1" fill="#9bc2d5" d="M 266.5,722.5 C 271.23,726.227 275.23,730.56 278.5,735.5C 273.77,731.773 269.77,727.44 266.5,722.5 Z"/></g>
<g><path style="opacity:1" fill="#9dc4d6" d="M 279.5,736.5 C 284.23,740.227 288.23,744.56 291.5,749.5C 286.77,745.773 282.77,741.44 279.5,736.5 Z"/></g>
<g><path style="opacity:1" fill="#98c1d4" d="M 293.5,751.5 C 297.566,754.563 300.899,758.229 303.5,762.5C 299.434,759.437 296.101,755.771 293.5,751.5 Z"/></g>
<g><path style="opacity:1" fill="#1877a4" d="M 311.5,770.5 C 311.28,771.798 311.947,773.131 313.5,774.5C 318.719,777.212 323.219,780.879 327,785.5C 350.967,811.801 375.3,837.801 400,863.5C 402.08,866.065 403.913,868.732 405.5,871.5C 405.167,871.5 404.833,871.5 404.5,871.5C 378.539,843.037 352.372,814.703 326,786.5C 322.219,781.879 317.719,778.212 312.5,775.5C 311.37,774.378 310.703,773.044 310.5,771.5C 310.5,770.833 310.833,770.5 311.5,770.5 Z"/></g>
<g><path style="opacity:1" fill="#1777a4" d="M 764.5,864.5 C 764.823,868.226 764.489,871.893 763.5,875.5C 736.074,913.926 700.074,940.926 655.5,956.5C 654.167,956.5 652.833,956.5 651.5,956.5C 697.329,941.089 734.329,913.755 762.5,874.5C 763.484,871.572 763.817,868.572 763.5,865.5C 763.5,864.833 763.833,864.5 764.5,864.5 Z"/></g>
</svg>
