<?xml version="1.0" encoding="UTF-8"?>
<!DOCTYPE svg PUBLIC "-//W3C//DTD SVG 1.1//EN" "http://www.w3.org/Graphics/SVG/1.1/DTD/svg11.dtd">
<svg xmlns="http://www.w3.org/2000/svg" version="1.1" width="990px" height="1004px" style="shape-rendering:geometricPrecision; text-rendering:geometricPrecision; image-rendering:optimizeQuality; fill-rule:evenodd; clip-rule:evenodd" xmlns:xlink="http://www.w3.org/1999/xlink">
<g><path style="opacity:1" fill="#fefefe" d="M -0.5,-0.5 C 329.5,-0.5 659.5,-0.5 989.5,-0.5C 989.5,334.167 989.5,668.833 989.5,1003.5C 659.5,1003.5 329.5,1003.5 -0.5,1003.5C -0.5,668.833 -0.5,334.167 -0.5,-0.5 Z"/></g>
<g><path style="opacity:1" fill="#cbcbcb" d="M 919.5,326.5 C 920.833,336.5 920.833,346.5 919.5,356.5C 918.167,346.5 918.167,336.5 919.5,326.5 Z"/></g>
<g><path style="opacity:1" fill="#cccccc" d="M 161.5,350.5 C 175.362,348.021 185.862,352.688 193,364.5C 207.592,404.608 221.592,444.942 235,485.5C 247.864,447.907 260.531,410.241 273,372.5C 281.063,350.853 295.563,345.02 316.5,355C 327.804,364.248 330.971,375.748 326,389.5C 307.667,439.5 289.333,489.5 271,539.5C 259.959,567.101 240.793,574.935 213.5,563C 205.676,556.872 200.176,549.039 197,539.5C 177.763,487.696 159.097,435.696 141,383.5C 139.222,367.042 146.055,356.042 161.5,350.5 Z"/></g>
<g><path style="opacity:1" fill="#cccccc" d="M 370.5,350.5 C 389.269,348.455 401.103,356.455 406,374.5C 406.667,430.833 406.667,487.167 406,543.5C 401.077,564.063 388.243,571.897 367.5,567C 355.518,561.901 349.352,552.735 349,539.5C 348.333,485.833 348.333,432.167 349,378.5C 350.455,364.571 357.621,355.237 370.5,350.5 Z"/></g>
<g><path style="opacity:1" fill="#cccccc" d="M 733.5,350.5 C 756.659,348.068 778.659,351.902 799.5,362C 814.333,370.84 823.833,383.673 828,400.5C 829.783,420.208 820.949,431.541 801.5,434.5C 792.195,434.266 785.029,430.266 780,422.5C 777,417.167 774,411.833 771,406.5C 767.06,400.613 761.56,397.447 754.5,397C 745.701,395.555 737.368,396.889 729.5,401C 722.422,405.953 721.756,411.619 727.5,418C 730.833,419.667 734.167,421.333 737.5,423C 756.346,427.711 775.013,433.045 793.5,439C 825.888,451.411 840.054,474.911 836,509.5C 828.881,541.005 809.381,559.838 777.5,566C 752.536,570.972 728.203,568.972 704.5,560C 677.301,546.415 664.468,524.582 666,494.5C 673.639,478.765 685.806,473.599 702.5,479C 706.933,481.133 710.433,484.3 713,488.5C 716.623,496.71 720.623,504.71 725,512.5C 731.619,519.557 739.785,522.891 749.5,522.5C 757.777,522.349 765.444,520.182 772.5,516C 783.604,503.23 781.271,493.564 765.5,487C 752.915,483.354 740.248,480.02 727.5,477C 710.052,472.863 694.886,464.696 682,452.5C 670.658,438.137 666.324,421.803 669,403.5C 673.082,382.513 684.915,367.68 704.5,359C 713.973,355.054 723.64,352.22 733.5,350.5 Z"/></g>
<g><path style="opacity:1" fill="#cccccc" d="M 461.5,354.5 C 472.838,354.333 484.172,354.5 495.5,355C 509.036,357.538 516.869,365.705 519,379.5C 525.847,405.222 532.847,430.888 540,456.5C 547.642,429.933 554.975,403.266 562,376.5C 564.536,364.631 571.703,357.464 583.5,355C 595.167,354.333 606.833,354.333 618.5,355C 631.334,356.815 639.167,363.981 642,376.5C 642.667,432.5 642.667,488.5 642,544.5C 638.097,562.544 626.93,570.378 608.5,568C 597.789,564.624 591.289,557.457 589,546.5C 588.833,525.825 588.333,505.159 587.5,484.5C 581.369,505.683 575.536,527.017 570,548.5C 562.755,564.874 550.255,571.374 532.5,568C 519.239,564.043 511.072,555.209 508,541.5C 503.453,522.309 498.453,503.309 493,484.5C 492.667,503.167 492.333,521.833 492,540.5C 489.205,562.952 476.705,571.786 454.5,567C 444.996,562.512 439.496,555.012 438,544.5C 437.333,488.833 437.333,433.167 438,377.5C 439.037,371.594 441.537,366.427 445.5,362C 450.542,358.643 455.876,356.143 461.5,354.5 Z"/></g>
<g><path style="opacity:1" fill="#cbcbcb" d="M 919.5,356.5 C 919.817,360.702 919.483,364.702 918.5,368.5C 916.857,364.705 916.191,360.705 916.5,356.5C 917.5,356.5 918.5,356.5 919.5,356.5 Z"/></g>
<g><path style="opacity:1" fill="#cbcbcb" d="M 918.5,368.5 C 918.808,370.924 918.474,373.257 917.5,375.5C 916.914,375.291 916.414,374.957 916,374.5C 915.505,372.527 915.338,370.527 915.5,368.5C 916.5,368.5 917.5,368.5 918.5,368.5 Z"/></g>
<g><path style="opacity:1" fill="#dcdcdc" d="M 89.5,394.5 C 88.0427,396.628 87.0427,398.962 86.5,401.5C 85.4701,398.223 85.8034,394.89 87.5,391.5C 88.1757,392.602 88.8423,393.602 89.5,394.5 Z"/></g>
<g><path style="opacity:1" fill="#cbcbcb" d="M 439.5,903.5 C 452.088,913.138 465.088,922.305 478.5,931C 489.401,936.869 500.567,942.035 512,946.5C 513.406,945.332 514.572,945.665 515.5,947.5C 516.086,947.291 516.586,946.957 517,946.5C 517.816,947.823 518.983,948.489 520.5,948.5C 520.842,949.338 521.508,949.672 522.5,949.5C 523.943,948.665 524.943,947.332 525.5,945.5C 525.111,947.403 525.944,949.07 528,950.5C 532.292,951.309 536.292,952.642 540,954.5C 542.382,953.134 544.548,953.467 546.5,955.5C 547.446,955.013 548.446,954.68 549.5,954.5C 622.103,964.791 684.269,943.125 736,889.5C 742.631,881.178 749.464,873.178 756.5,865.5C 757.514,866.765 759.014,867.431 761,867.5C 762.707,867.492 764.207,867.158 765.5,866.5C 768.287,865.523 771.287,865.19 774.5,865.5C 779.752,865.531 784.918,864.864 790,863.5C 791.376,863.316 792.209,862.649 792.5,861.5C 805.614,857.851 818.448,853.518 831,848.5C 836.925,838.318 842.591,827.985 848,817.5C 851.027,807.125 854.861,797.125 859.5,787.5C 862.053,776.767 863.72,765.767 864.5,754.5C 866.689,744.09 867.689,733.424 867.5,722.5C 868.408,710.443 869.408,698.443 870.5,686.5C 873.118,658.359 875.118,630.025 876.5,601.5C 877.213,596.602 877.879,591.602 878.5,586.5C 880.368,566.328 882.034,545.995 883.5,525.5C 883.874,514.982 884.54,504.482 885.5,494C 885.392,492.319 884.725,491.152 883.5,490.5C 885.384,488.833 885.718,486.666 884.5,484C 884.675,482.342 885.342,481.009 886.5,480C 885.266,476.602 885.932,473.602 888.5,471C 887.185,469.605 887.519,468.605 889.5,468C 888.978,467.439 888.645,466.772 888.5,466C 891.354,457.893 894.354,449.893 897.5,442C 896.185,440.605 896.519,439.605 898.5,439C 898.112,437.192 898.112,435.525 898.5,434C 900.354,429.878 902.354,425.878 904.5,422C 903.12,418.855 903.786,416.188 906.5,414C 905.185,412.605 905.519,411.605 907.5,411C 907.043,410.586 906.709,410.086 906.5,409.5C 908.641,405.988 909.974,402.154 910.5,398C 910.905,397.055 911.572,396.388 912.5,396C 911.978,395.439 911.645,394.772 911.5,394C 911.764,391.272 912.764,388.939 914.5,387C 912.968,384.67 913.302,382.67 915.5,381C 914.62,379.644 914.286,378.144 914.5,376.5C 915.5,376.5 916.5,376.5 917.5,376.5C 917.142,380.509 916.642,384.509 916,388.5C 909.419,411.85 902.086,434.85 894,457.5C 891.326,466.025 889.159,474.692 887.5,483.5C 900.635,507.87 914.635,532.37 929.5,557C 963.118,624.895 962.784,693.062 928.5,761.5C 909.803,791.713 885.47,817.213 855.5,838C 847.796,842.519 839.796,846.519 831.5,850C 787.087,915.952 725.254,951.119 646,955.5C 641.253,955.487 636.586,955.153 632,954.5C 560.569,970.1 496.736,954.1 440.5,906.5C 439.614,905.675 439.281,904.675 439.5,903.5 Z"/></g>
<g><path style="opacity:1" fill="#f4f4f4" d="M 881.5,529.5 C 880.168,548.481 879.168,567.481 878.5,586.5C 877.879,591.602 877.213,596.602 876.5,601.5C 873.72,629.629 871.72,657.962 870.5,686.5C 869.408,698.443 868.408,710.443 867.5,722.5C 866.18,732.991 865.18,743.658 864.5,754.5C 862.198,765.272 860.531,776.272 859.5,787.5C 854.861,797.125 851.027,807.125 848,817.5C 842.591,827.985 836.925,838.318 831,848.5C 818.448,853.518 805.614,857.851 792.5,861.5C 786.366,862.748 780.366,864.082 774.5,865.5C 771.287,865.19 768.287,865.523 765.5,866.5C 762.753,866.813 760.086,866.48 757.5,865.5C 761.971,859.747 765.304,853.414 767.5,846.5C 767.427,844.973 768.094,843.973 769.5,843.5C 770.75,843.423 771.583,842.756 772,841.5C 774.734,832.973 778.067,824.639 782,816.5C 784.684,808.618 786.851,800.618 788.5,792.5C 790.355,787.128 792.521,781.795 795,776.5C 799.231,759.562 804.064,742.896 809.5,726.5C 813.556,717.31 816.556,707.643 818.5,697.5C 821.672,691.646 823.672,685.312 824.5,678.5C 824.338,676.473 824.505,674.473 825,672.5C 825.383,671.944 825.883,671.611 826.5,671.5C 827.117,671.389 827.617,671.056 828,670.5C 829.838,663.494 831.672,656.494 833.5,649.5C 836.822,642.642 839.155,635.308 840.5,627.5C 841.924,625.485 842.59,623.152 842.5,620.5C 846.333,612.662 849,604.329 850.5,595.5C 853.712,590.019 855.712,584.019 856.5,577.5C 858.813,569.398 861.647,561.398 865,553.5C 865.945,549.506 866.778,545.506 867.5,541.5C 871.863,532.402 874.863,522.736 876.5,512.5C 878.277,509.495 879.277,506.162 879.5,502.5C 881.823,499.278 883.323,495.612 884,491.5C 883.501,504.161 882.667,516.828 881.5,529.5 Z"/></g>
<g><path style="opacity:1" fill="#e1e1e1" d="M 883.5,490.5 C 884.725,491.152 885.392,492.319 885.5,494C 884.54,504.482 883.874,514.982 883.5,525.5C 882.833,526.833 882.167,528.167 881.5,529.5C 882.667,516.828 883.501,504.161 884,491.5C 883.323,495.612 881.823,499.278 879.5,502.5C 879.678,499.784 880.178,497.117 881,494.5C 881.2,492.68 882.034,491.347 883.5,490.5 Z"/></g>
<g><path style="opacity:1" fill="#d1d1d1" d="M 879.5,502.5 C 879.277,506.162 878.277,509.495 876.5,512.5C 876.723,508.838 877.723,505.505 879.5,502.5 Z"/></g>
<g><path style="opacity:1" fill="#dddddd" d="M 876.5,512.5 C 874.863,522.736 871.863,532.402 867.5,541.5C 869.541,531.386 872.541,521.719 876.5,512.5 Z"/></g>
<g><path style="opacity:1" fill="#cecece" d="M 862.5,536.5 C 865.018,537.759 864.852,539.093 862,540.5C 861.421,539.072 861.588,537.738 862.5,536.5 Z"/></g>
<g><path style="opacity:1" fill="#d5d5d5" d="M 883.5,525.5 C 882.034,545.995 880.368,566.328 878.5,586.5C 879.168,567.481 880.168,548.481 881.5,529.5C 882.167,528.167 882.833,526.833 883.5,525.5 Z"/></g>
<g><path style="opacity:1" fill="#d7d7d7" d="M 867.5,541.5 C 866.778,545.506 865.945,549.506 865,553.5C 861.647,561.398 858.813,569.398 856.5,577.5C 859.007,564.99 862.674,552.99 867.5,541.5 Z"/></g>
<g><path style="opacity:1" fill="#f4f4f4" d="M 129.5,567.5 C 130.744,571.412 133.411,573.412 137.5,573.5C 138.492,573.328 139.158,573.662 139.5,574.5C 139.062,574.435 138.728,574.601 138.5,575C 139.249,576.734 139.749,578.567 140,580.5C 157.159,599.992 174.659,619.159 192.5,638C 193.793,638.49 195.127,638.657 196.5,638.5C 196.232,640.099 196.566,641.432 197.5,642.5C 199.997,643.129 201.33,644.796 201.5,647.5C 204.77,652.44 208.77,656.773 213.5,660.5C 220.47,669.412 228.137,677.745 236.5,685.5C 238.43,689.1 241.097,692.1 244.5,694.5C 244.5,694.833 244.5,695.167 244.5,695.5C 249.195,700.526 253.861,705.526 258.5,710.5C 258.833,710.5 259.167,710.5 259.5,710.5C 260.026,712.23 261.026,713.564 262.5,714.5C 265.129,718.797 268.463,722.463 272.5,725.5C 274.833,729.833 278.167,733.167 282.5,735.5C 284.442,740.441 287.775,744.108 292.5,746.5C 293.5,746.833 294.167,747.5 294.5,748.5C 295.427,752.425 297.76,755.092 301.5,756.5C 301.343,757.873 301.51,759.207 302,760.5C 303.833,761.667 305.333,763.167 306.5,765C 312.091,765.915 315.925,769.082 318,774.5C 318.232,773.263 318.732,772.263 319.5,771.5C 319.433,772.959 319.766,774.292 320.5,775.5C 319.5,776.5 318.5,777.5 317.5,778.5C 248.468,730.301 179.301,682.301 110,634.5C 109.572,626.111 110.072,617.777 111.5,609.5C 112.117,609.389 112.617,609.056 113,608.5C 114.154,604.553 114.987,600.553 115.5,596.5C 118.358,586.773 122.358,577.44 127.5,568.5C 127.957,567.702 128.624,567.369 129.5,567.5 Z"/></g>
<g><path style="opacity:1" fill="#dadada" d="M 129.5,567.5 C 131.93,569.945 134.596,571.945 137.5,573.5C 133.411,573.412 130.744,571.412 129.5,567.5 Z"/></g>
<g><path style="opacity:1" fill="#dedede" d="M 856.5,577.5 C 855.712,584.019 853.712,590.019 850.5,595.5C 851.163,588.844 853.163,582.844 856.5,577.5 Z"/></g>
<g><path style="opacity:1" fill="#e1e1e1" d="M 115.5,596.5 C 114.987,600.553 114.154,604.553 113,608.5C 112.617,609.056 112.117,609.389 111.5,609.5C 112.388,604.927 113.721,600.594 115.5,596.5 Z"/></g>
<g><path style="opacity:1" fill="#dcdcdc" d="M 850.5,595.5 C 849,604.329 846.333,612.662 842.5,620.5C 844.006,611.653 846.673,603.319 850.5,595.5 Z"/></g>
<g><path style="opacity:1" fill="#dbdbdb" d="M 139.5,574.5 C 140.302,575.952 140.802,577.618 141,579.5C 158.131,598.966 175.631,618.133 193.5,637C 194.793,637.49 196.127,637.657 197.5,637.5C 197.5,639.167 197.5,640.833 197.5,642.5C 196.566,641.432 196.232,640.099 196.5,638.5C 195.127,638.657 193.793,638.49 192.5,638C 174.659,619.159 157.159,599.992 140,580.5C 139.749,578.567 139.249,576.734 138.5,575C 138.728,574.601 139.062,574.435 139.5,574.5 Z"/></g>
<g><path style="opacity:1" fill="#d0d0d0" d="M 842.5,620.5 C 842.59,623.152 841.924,625.485 840.5,627.5C 840.41,624.848 841.076,622.515 842.5,620.5 Z"/></g>
<g><path style="opacity:1" fill="#cccccc" d="M 919.5,326.5 C 918.5,326.5 917.5,326.5 916.5,326.5C 916.299,323.272 916.633,320.105 917.5,317C 915.469,314.518 915.135,311.852 916.5,309C 914.275,306.975 913.941,304.642 915.5,302C 914.977,300.386 913.644,298.886 911.5,297.5C 912.093,295.618 912.76,293.785 913.5,292C 911.5,287.38 909.5,282.713 907.5,278C 893.869,231.553 865.536,194.053 822.5,165.5C 783.982,141.013 740.982,130.179 693.5,133C 694.706,134.018 694.373,134.518 692.5,134.5C 685.529,133.753 678.529,133.753 671.5,134.5C 671.631,131.633 670.297,129.967 667.5,129.5C 642.491,108.271 614.158,93.2708 582.5,84.5C 573.529,81.5472 564.196,79.8805 554.5,79.5C 493.943,106.974 433.61,135.141 373.5,164C 369.667,165.5 365.833,167 362,168.5C 361.228,168.355 360.561,168.022 360,167.5C 358.383,169.763 356.55,171.763 354.5,173.5C 351.586,177.658 348.919,181.991 346.5,186.5C 342.331,192.639 338.664,198.972 335.5,205.5C 333.461,207.252 331.295,208.919 329,210.5C 320.515,211.059 312.015,212.559 303.5,215C 304.416,215.278 305.082,215.778 305.5,216.5C 285.61,221.18 265.61,225.68 245.5,230C 162.062,252.773 109.395,306.106 87.5,390C 90.4106,390.698 91.0773,392.198 89.5,394.5C 88.8423,393.602 88.1757,392.602 87.5,391.5C 85.8034,394.89 85.4701,398.223 86.5,401.5C 82.3319,427.289 82.8319,453.289 88,479.5C 90.3286,485.656 92.1619,491.99 93.5,498.5C 97.6707,499.514 98.3373,501.68 95.5,505C 103.06,525.538 113.56,544.372 127,561.5C 127.938,563.488 128.772,565.488 129.5,567.5C 128.624,567.369 127.957,567.702 127.5,568.5C 122.358,577.44 118.358,586.773 115.5,596.5C 113.721,600.594 112.388,604.927 111.5,609.5C 110.072,617.777 109.572,626.111 110,634.5C 179.301,682.301 248.468,730.301 317.5,778.5C 320.075,779.568 322.242,781.235 324,783.5C 324.464,782.906 324.631,782.239 324.5,781.5C 330.445,787.272 336.611,792.939 343,798.5C 365.344,823.01 387.844,847.343 410.5,871.5C 411.63,872.622 412.297,873.956 412.5,875.5C 409.775,874.287 407.441,872.454 405.5,870C 374.791,869.826 344.125,869.326 313.5,868.5C 234.047,865.036 173.881,829.369 133,761.5C 111.017,721.563 102.35,678.897 107,633.5C 51.0082,579.49 27.3415,512.49 36,432.5C 53.1651,344.432 102.665,284.099 184.5,251.5C 208.882,239.264 231.882,228.598 253.5,219.5C 259.859,216.101 265.692,212.768 271,209.5C 271.414,209.957 271.914,210.291 272.5,210.5C 279.179,206.371 285.512,203.371 291.5,201.5C 296.758,198.622 301.924,195.622 307,192.5C 307.414,192.957 307.914,193.291 308.5,193.5C 315.51,189.14 322.177,185.973 328.5,184C 337.392,179.272 346.059,174.939 354.5,171C 403.574,103.795 469.574,72.7947 552.5,78C 577.823,64.3342 604.49,54.0009 632.5,47C 718.424,32.6956 790.757,57.5289 849.5,121.5C 881.712,159.245 900.046,203.078 904.5,253C 904.043,253.414 903.709,253.914 903.5,254.5C 908.71,269.963 913.21,285.63 917,301.5C 918.575,309.764 919.408,318.097 919.5,326.5 Z"/></g>
<g><path style="opacity:1" fill="#d4d4d4" d="M 359.5,203.5 C 358.116,204.801 356.616,204.801 355,203.5C 354.481,204.516 353.647,205.182 352.5,205.5C 346.489,206.602 340.489,207.769 334.5,209C 333.833,209.667 333.167,210.333 332.5,211C 323.517,212.996 314.517,214.83 305.5,216.5C 305.082,215.778 304.416,215.278 303.5,215C 312.015,212.559 320.515,211.059 329,210.5C 331.295,208.919 333.461,207.252 335.5,205.5C 336.824,208.081 338.324,208.081 340,205.5C 342.569,205.185 345.236,205.185 348,205.5C 350.664,204.918 353.164,203.918 355.5,202.5C 356.849,202.846 358.183,203.179 359.5,203.5 Z"/></g>
<g><path style="opacity:1" fill="#dadada" d="M 395.5,194.5 C 383.461,198.033 371.461,201.033 359.5,203.5C 359.62,202.414 360.287,201.747 361.5,201.5C 372.566,198.153 383.9,195.82 395.5,194.5 Z"/></g>
<g><path style="opacity:1" fill="#dbdbdb" d="M 442.5,184.5 C 430.359,187.663 418.025,190.33 405.5,192.5C 405.97,191.307 406.97,190.64 408.5,190.5C 419.78,188.11 431.113,186.11 442.5,184.5 Z"/></g>
<g><path style="opacity:1" fill="#dbdbdb" d="M 478.5,176.5 C 466.887,180.292 454.887,182.959 442.5,184.5C 442.791,183.351 443.624,182.684 445,182.5C 456.098,180.047 467.265,178.047 478.5,176.5 Z"/></g>
<g><path style="opacity:1" fill="#e4e4e4" d="M 354.5,173.5 C 353.058,178.744 350.391,183.077 346.5,186.5C 348.919,181.991 351.586,177.658 354.5,173.5 Z"/></g>
<g><path style="opacity:1" fill="#dcdcdc" d="M 525.5,166.5 C 511.829,170.403 497.829,173.403 483.5,175.5C 483.791,174.351 484.624,173.684 486,173.5C 499.125,170.841 512.291,168.508 525.5,166.5 Z"/></g>
<g><path style="opacity:1" fill="#dadada" d="M 603.5,149.5 C 577.831,155.903 551.831,161.57 525.5,166.5C 527.158,165.819 528.825,164.985 530.5,164C 554.913,159.351 579.247,154.517 603.5,149.5 Z"/></g>
<g><path style="opacity:1" fill="#cfcfcf" d="M 613.5,147.5 C 610.411,148.785 607.078,149.451 603.5,149.5C 606.544,147.989 609.878,147.322 613.5,147.5 Z"/></g>
<g><path style="opacity:1" fill="#e1e1e1" d="M 638.5,141.5 C 630.645,144.745 622.311,146.745 613.5,147.5C 613.791,146.351 614.624,145.684 616,145.5C 623.455,143.842 630.955,142.509 638.5,141.5 Z"/></g>
<g><path style="opacity:1" fill="#dfdfdf" d="M 667.5,129.5 C 670.297,129.967 671.631,131.633 671.5,134.5C 671.389,135.117 671.056,135.617 670.5,136C 665.173,136.943 659.84,137.777 654.5,138.5C 654.62,137.414 655.287,136.747 656.5,136.5C 661.218,135.714 665.885,134.714 670.5,133.5C 669.476,132.148 668.476,130.815 667.5,129.5 Z"/></g>
<g><path style="opacity:1" fill="#d7d7d7" d="M 554.5,79.5 C 564.196,79.8805 573.529,81.5472 582.5,84.5C 573.011,83.0059 563.678,81.3393 554.5,79.5 Z"/></g>
<g><path style="opacity:1" fill="#f4f4f4" d="M 554.5,79.5 C 563.678,81.3393 573.011,83.0059 582.5,84.5C 614.158,93.2708 642.491,108.271 667.5,129.5C 668.476,130.815 669.476,132.148 670.5,133.5C 665.885,134.714 661.218,135.714 656.5,136.5C 655.287,136.747 654.62,137.414 654.5,138.5C 649.401,140.101 644.067,141.101 638.5,141.5C 630.955,142.509 623.455,143.842 616,145.5C 614.624,145.684 613.791,146.351 613.5,147.5C 609.878,147.322 606.544,147.989 603.5,149.5C 579.247,154.517 554.913,159.351 530.5,164C 528.825,164.985 527.158,165.819 525.5,166.5C 512.291,168.508 499.125,170.841 486,173.5C 484.624,173.684 483.791,174.351 483.5,175.5C 482.081,176.451 480.415,176.784 478.5,176.5C 467.265,178.047 456.098,180.047 445,182.5C 443.624,182.684 442.791,183.351 442.5,184.5C 431.113,186.11 419.78,188.11 408.5,190.5C 406.97,190.64 405.97,191.307 405.5,192.5C 402.411,193.785 399.078,194.451 395.5,194.5C 383.9,195.82 372.566,198.153 361.5,201.5C 360.287,201.747 359.62,202.414 359.5,203.5C 358.183,203.179 356.849,202.846 355.5,202.5C 353.164,203.918 350.664,204.918 348,205.5C 345.236,205.185 342.569,205.185 340,205.5C 338.324,208.081 336.824,208.081 335.5,205.5C 338.664,198.972 342.331,192.639 346.5,186.5C 350.391,183.077 353.058,178.744 354.5,173.5C 356.55,171.763 358.383,169.763 360,167.5C 360.561,168.022 361.228,168.355 362,168.5C 365.833,167 369.667,165.5 373.5,164C 433.61,135.141 493.943,106.974 554.5,79.5 Z"/></g>
<g><path style="opacity:1" fill="#dcdcdc" d="M 840.5,627.5 C 839.155,635.308 836.822,642.642 833.5,649.5C 834.723,641.744 837.056,634.41 840.5,627.5 Z"/></g>
<g><path style="opacity:1" fill="#e2e2e2" d="M 201.5,647.5 C 205.737,650.228 209.571,653.561 213,657.5C 213.483,658.448 213.649,659.448 213.5,660.5C 208.77,656.773 204.77,652.44 201.5,647.5 Z"/></g>
<g><path style="opacity:1" fill="#dedede" d="M 876.5,601.5 C 875.118,630.025 873.118,658.359 870.5,686.5C 871.72,657.962 873.72,629.629 876.5,601.5 Z"/></g>
<g><path style="opacity:1" fill="#d4d4d4" d="M 833.5,649.5 C 831.672,656.494 829.838,663.494 828,670.5C 827.617,671.056 827.117,671.389 826.5,671.5C 827.523,665.073 829.023,658.74 831,652.5C 831.377,651.058 832.21,650.058 833.5,649.5 Z"/></g>
<g><path style="opacity:1" fill="#d8d8d8" d="M 213.5,660.5 C 221.863,668.255 229.53,676.588 236.5,685.5C 228.137,677.745 220.47,669.412 213.5,660.5 Z"/></g>
<g><path style="opacity:1" fill="#d6d6d6" d="M 236.5,685.5 C 239.903,687.9 242.57,690.9 244.5,694.5C 241.097,692.1 238.43,689.1 236.5,685.5 Z"/></g>
<g><path style="opacity:1" fill="#d6d6d6" d="M 824.5,678.5 C 823.672,685.312 821.672,691.646 818.5,697.5C 819.882,691.511 821.382,685.511 823,679.5C 823.383,678.944 823.883,678.611 824.5,678.5 Z"/></g>
<g><path style="opacity:1" fill="#cecece" d="M 244.5,695.5 C 244.5,695.167 244.5,694.833 244.5,694.5C 246.5,694.5 248.5,694.5 250.5,694.5C 250.5,695.5 250.5,696.5 250.5,697.5C 248.886,695.925 246.886,695.259 244.5,695.5 Z"/></g>
<g><path style="opacity:1" fill="#d2d2d2" d="M 250.5,697.5 C 253.723,699.174 256.556,701.507 259,704.5C 259.495,706.473 259.662,708.473 259.5,710.5C 259.167,710.5 258.833,710.5 258.5,710.5C 258.66,708.801 258.494,707.134 258,705.5C 255.295,702.964 252.795,700.297 250.5,697.5 Z"/></g>
<g><path style="opacity:1" fill="#e9e9e9" d="M 244.5,695.5 C 246.886,695.259 248.886,695.925 250.5,697.5C 252.795,700.297 255.295,702.964 258,705.5C 258.494,707.134 258.66,708.801 258.5,710.5C 253.861,705.526 249.195,700.526 244.5,695.5 Z"/></g>
<g><path style="opacity:1" fill="#d3d3d3" d="M 259.5,710.5 C 261.446,711.035 262.446,712.368 262.5,714.5C 261.026,713.564 260.026,712.23 259.5,710.5 Z"/></g>
<g><path style="opacity:1" fill="#dbdbdb" d="M 262.5,714.5 C 266.56,717.558 269.894,721.224 272.5,725.5C 268.463,722.463 265.129,718.797 262.5,714.5 Z"/></g>
<g><path style="opacity:1" fill="#d4d4d4" d="M 818.5,697.5 C 816.556,707.643 813.556,717.31 809.5,726.5C 810.163,718.967 812.163,712.3 815.5,706.5C 815.291,705.914 814.957,705.414 814.5,705C 816.128,702.583 817.461,700.083 818.5,697.5 Z"/></g>
<g><path style="opacity:1" fill="#d8d8d8" d="M 272.5,725.5 C 276.167,728.5 279.5,731.833 282.5,735.5C 278.167,733.167 274.833,729.833 272.5,725.5 Z"/></g>
<g><path style="opacity:1" fill="#e4e4e4" d="M 867.5,722.5 C 867.689,733.424 866.689,744.09 864.5,754.5C 865.18,743.658 866.18,732.991 867.5,722.5 Z"/></g>
<g><path style="opacity:1" fill="#d7d7d7" d="M 282.5,735.5 C 283.496,735.414 284.329,735.748 285,736.5C 286.919,740.254 289.419,743.588 292.5,746.5C 287.775,744.108 284.442,740.441 282.5,735.5 Z"/></g>
<g><path style="opacity:1" fill="#d2d2d2" d="M 294.5,748.5 C 296.745,751.09 299.079,753.756 301.5,756.5C 297.76,755.092 295.427,752.425 294.5,748.5 Z"/></g>
<g><path style="opacity:1" fill="#d7d7d7" d="M 301.5,756.5 C 307.275,761.803 313.275,766.803 319.5,771.5C 318.732,772.263 318.232,773.263 318,774.5C 315.925,769.082 312.091,765.915 306.5,765C 305.333,763.167 303.833,761.667 302,760.5C 301.51,759.207 301.343,757.873 301.5,756.5 Z"/></g>
<g><path style="opacity:1" fill="#d4d4d4" d="M 809.5,726.5 C 804.064,742.896 799.231,759.562 795,776.5C 792.521,781.795 790.355,787.128 788.5,792.5C 790.998,781.996 793.664,771.829 796.5,762C 799.2,754.185 802.2,746.518 805.5,739C 805.185,736.902 805.185,734.902 805.5,733C 807.248,730.987 808.582,728.82 809.5,726.5 Z"/></g>
<g><path style="opacity:1" fill="#d6d6d6" d="M 864.5,754.5 C 863.72,765.767 862.053,776.767 859.5,787.5C 860.531,776.272 862.198,765.272 864.5,754.5 Z"/></g>
<g><path style="opacity:1" fill="#dbdbdb" d="M 320.5,775.5 C 321.441,777.772 322.774,779.772 324.5,781.5C 324.631,782.239 324.464,782.906 324,783.5C 322.242,781.235 320.075,779.568 317.5,778.5C 318.5,777.5 319.5,776.5 320.5,775.5 Z"/></g>
<g><path style="opacity:1" fill="#dbdbdb" d="M 788.5,792.5 C 786.851,800.618 784.684,808.618 782,816.5C 778.067,824.639 774.734,832.973 772,841.5C 771.583,842.756 770.75,843.423 769.5,843.5C 775.541,828.855 781.208,814.022 786.5,799C 786.075,796.983 786.075,795.149 786.5,793.5C 786.957,792.702 787.624,792.369 788.5,792.5 Z"/></g>
<g><path style="opacity:1" fill="#dadada" d="M 792.5,861.5 C 792.209,862.649 791.376,863.316 790,863.5C 784.918,864.864 779.752,865.531 774.5,865.5C 780.366,864.082 786.366,862.748 792.5,861.5 Z"/></g>
<g><path style="opacity:1" fill="#dbdbdb" d="M 767.5,846.5 C 765.304,853.414 761.971,859.747 757.5,865.5C 760.086,866.48 762.753,866.813 765.5,866.5C 764.207,867.158 762.707,867.492 761,867.5C 759.014,867.431 757.514,866.765 756.5,865.5C 759.611,858.816 763.278,852.483 767.5,846.5 Z"/></g>
<g><path style="opacity:1" fill="#cccccc" d="M 412.5,875.5 C 418.864,881.03 424.697,887.03 430,893.5C 430.308,892.692 430.808,892.025 431.5,891.5C 434.369,893.534 436.702,896.034 438.5,899C 438.095,899.945 437.428,900.612 436.5,901C 438.119,901.236 439.119,902.069 439.5,903.5C 438.448,903.649 437.448,903.483 436.5,903C 427.775,894.61 419.442,885.944 411.5,877C 412.056,876.617 412.389,876.117 412.5,875.5 Z"/></g>
<g><path style="opacity:1" fill="#f4f4f4" d="M 431.5,893.5 C 433.63,895.127 435.63,896.96 437.5,899C 433.79,899.126 431.79,897.293 431.5,893.5 Z"/></g>
<g><path style="opacity:1" fill="#dbdbdb" d="M 522.5,949.5 C 521.508,949.672 520.842,949.338 520.5,948.5C 520.1,946.623 519.1,945.123 517.5,944C 517.667,943.5 517.833,943 518,942.5C 520.912,941.26 523.579,939.594 526,937.5C 527.791,940.827 529.957,941.16 532.5,938.5C 533.5,938.833 534.167,939.5 534.5,940.5C 532.918,943.291 530.585,944.458 527.5,944C 529.932,942.913 529.598,942.413 526.5,942.5C 526.719,941.325 526.386,940.325 525.5,939.5C 523.446,941.459 521.113,942.959 518.5,944C 521.417,944.662 522.75,946.495 522.5,949.5 Z"/></g>
</svg>
